<?xml version="1.0" encoding="UTF-8" standalone="no"?>
<svg
   xmlns:dc="http://purl.org/dc/elements/1.1/"
   xmlns:cc="http://creativecommons.org/ns#"
   xmlns:rdf="http://www.w3.org/1999/02/22-rdf-syntax-ns#"
   xmlns:svg="http://www.w3.org/2000/svg"
   xmlns="http://www.w3.org/2000/svg"
   id="svg69"
   version="1.1"
   viewBox="0 0 46.647774 30.493347"
   height="30.493347mm"
   width="46.647774mm">
  <defs
     id="defs63" />
  <metadata
     id="metadata66">
    <rdf:RDF>
      <cc:Work
         rdf:about="">
        <dc:format>image/svg+xml</dc:format>
        <dc:type
           rdf:resource="http://purl.org/dc/dcmitype/StillImage" />
        <dc:title></dc:title>
      </cc:Work>
    </rdf:RDF>
  </metadata>
  <g
     transform="translate(201.91906,-179.17622)"
     id="layer1">
    <path
       id="path79"
       d="m -155.52351,205.78938 c -0.88766,0.6966 -7.12606,1.21325 -9.20548,0.76235 -1.36989,-0.29705 -2.91042,-1.00748 -2.91042,-1.34215 0,-0.16119 -0.14134,-0.4344 -0.31409,-0.60714 -0.41172,-0.41172 -0.60868,-2.70217 -0.23237,-2.70217 0.15503,0 0.28188,-0.29808 0.28188,-0.66241 0,-1.21682 1.46239,-3.49348 2.87104,-4.46968 1.56896,-1.08728 2.94979,-0.82757 2.94979,0.5548 0,0.43215 -0.15338,0.60854 -0.52917,0.60854 -0.29398,0 -0.52916,-0.17639 -0.52916,-0.39687 0,-0.7424 -0.82697,-0.4 -2.00606,0.8306 -1.45943,1.52321 -2.48917,4.40339 -1.94072,5.42817 0.46559,0.86995 0.7686,1.11183 1.9624,1.56649 1.29153,0.49186 5.62227,0.49221 7.89964,0 1.56542,-0.33792 2.40904,-0.12544 1.70272,0.42886 z m -14.36295,3.14556 c -0.8783,0.5756 -1.11009,0.61015 -4.83055,0.72014 -1.49159,0.0441 -2.71198,-0.0159 -2.71198,-0.13314 0,-0.11734 -0.14883,-0.21709 -0.33073,-0.22169 -0.59198,-0.0151 -1.76779,-1.25767 -2.1669,-2.29021 -0.6211,-1.60684 -0.94555,-3.99553 -0.92881,-6.83808 0.0282,-4.79263 0.0175,-4.83113 -1.25054,-4.48469 -0.41084,0.11221 -0.92557,0.23662 -1.14385,0.27647 -0.21828,0.0398 -0.66477,0.15555 -0.99219,0.25717 -0.62032,0.19259 -0.79807,-0.2065 -0.38294,-0.85981 0.17338,-0.27284 1.84955,-0.75277 3.44761,-0.98711 0.39878,-0.0585 0.44473,-0.78513 0.47936,-7.58016 0.0378,-7.42338 0.0451,-7.51649 0.59531,-7.60002 0.49745,-0.0755 0.56043,0.0518 0.58898,1.19063 0.0176,0.70135 0.0235,1.57284 0.0131,1.93664 -0.26305,9.19858 -0.2391,11.93583 0.10326,11.80444 0.20017,-0.0768 0.43102,-0.0311 0.51301,0.10155 0.082,0.13266 0.59182,0.20298 1.13295,0.15631 0.54114,-0.0467 1.21935,0.0369 1.50715,0.18566 0.5213,0.26953 0.5213,0.27133 0,0.47501 -0.2878,0.11242 -0.93999,0.21441 -1.44931,0.22664 -1.71915,0.0412 -2.0274,0.23188 -2.0883,1.29159 -0.20359,3.54277 0.0461,8.03187 0.51046,9.17702 0.69974,1.72564 0.89747,1.96969 1.93081,2.38315 1.20138,0.4807 5.08241,0.59399 6.3939,0.18664 0.43656,-0.1356 1.02742,-0.16412 1.31302,-0.0634 0.47889,0.16897 0.45924,0.22257 -0.25277,0.68922 z m -17.40052,-0.82257 c -2.11486,0.6817 -2.83826,0.78722 -5.35555,0.78116 -3.58761,-0.009 -5.1501,-0.20013 -5.43843,-0.66667 -0.12174,-0.19698 -0.30003,-0.27946 -0.39621,-0.18328 -0.29505,0.29506 -1.72658,-1.04412 -2.6433,-2.4728 -0.83411,-1.29992 -1.05603,-4.28474 -0.46906,-6.30909 0.47441,-1.63618 2.22292,-4.1298 3.08412,-4.39835 0.31417,-0.098 0.63074,-0.25467 0.7035,-0.34822 0.37001,-0.4757 2.48749,-1.14353 3.49166,-1.10123 1.76452,0.0743 2.25667,0.16045 2.63783,0.46168 0.19404,0.15335 0.65046,0.35388 1.01426,0.44558 0.36381,0.0917 1.27536,0.75081 2.02569,1.46466 0.75032,0.71379 1.58376,1.42274 1.85208,1.57535 0.39031,0.22201 0.42928,0.3729 0.19492,0.75465 -0.16112,0.26244 -0.51831,0.51308 -0.79375,0.55694 -0.27545,0.0439 -0.73894,0.18259 -1.02998,0.30822 -2.04168,0.88146 -8.80359,1.66981 -10.55389,1.23052 -0.60859,-0.15274 -1.01207,-0.94366 -0.49246,-0.96536 0.10914,-0.005 1.60649,-0.0183 3.32745,-0.0306 2.91406,-0.0209 3.93723,-0.17786 5.37857,-0.82566 0.31354,-0.14092 0.69158,-0.18114 0.84007,-0.0893 0.14849,0.0917 0.58189,0.0246 0.9631,-0.14896 l 0.69311,-0.31581 -0.60714,-0.60976 c -0.33393,-0.33536 -0.95385,-0.95837 -1.3776,-1.38448 -0.91818,-0.92332 -3.34009,-1.67749 -4.79055,-1.49178 -1.30433,0.16698 -3.50275,1.51871 -4.42896,2.7232 -0.9872,1.28381 -1.3861,2.74767 -1.35148,4.95959 0.0204,1.30259 0.18237,2.12682 0.54599,2.77812 0.63918,1.14491 2.79479,2.81599 3.89234,3.01744 0.69212,0.12706 3.40527,0.19185 5.31562,0.12698 0.29104,-0.01 1.64422,-0.31218 3.00707,-0.67175 2.31914,-0.61188 3.21376,-0.65813 3.20837,-0.16587 -0.001,0.11372 -1.10257,0.56142 -2.44739,0.99491 z"
       style="fill:#000000;stroke-width:0.26458332" />
  </g>
</svg>
