<?xml version="1.0" encoding="UTF-8" standalone="no"?>
<svg
   xmlns:dc="http://purl.org/dc/elements/1.1/"
   xmlns:cc="http://creativecommons.org/ns#"
   xmlns:rdf="http://www.w3.org/1999/02/22-rdf-syntax-ns#"
   xmlns:svg="http://www.w3.org/2000/svg"
   xmlns="http://www.w3.org/2000/svg"
   id="svg86"
   version="1.1"
   viewBox="0 0 147.85567 95.034668"
   height="95.034668mm"
   width="147.85567mm">
  <defs
     id="defs80" />
  <metadata
     id="metadata83">
    <rdf:RDF>
      <cc:Work
         rdf:about="">
        <dc:format>image/svg+xml</dc:format>
        <dc:type
           rdf:resource="http://purl.org/dc/dcmitype/StillImage" />
        <dc:title></dc:title>
      </cc:Work>
    </rdf:RDF>
  </metadata>
  <g
     transform="translate(-35.836113,-27.421505)"
     id="layer1">
    <path
       id="path22"
       d="m 68.053507,121.3968 c -0.04019,-0.18603 -0.06137,-0.51648 -0.04708,-0.73434 0.08937,-1.36181 0.03895,-0.55425 -0.145346,-0.69128 -0.116247,-0.0865 -0.189385,-0.4171 -0.162524,-0.7348 0.02679,-0.31771 0.289417,-0.36076 0.0118,-2.13734 -0.277614,-1.77657 -0.627229,-4.73445 -0.776918,-6.57305 -0.149689,-1.8386 -0.35425,-3.58897 -0.454577,-3.88971 -0.100327,-0.30076 -0.167531,-0.7248 -0.149343,-0.94232 0.116448,-1.39242 -0.02422,-4.29359 -0.342187,-7.05778 -0.203051,-1.765211 -0.300059,-3.30244 -0.215578,-3.416057 0.08449,-0.11363 0.03267,-0.380763 -0.115148,-0.593643 -0.147814,-0.212878 -0.267725,-0.7856 -0.266472,-1.272695 0.0013,-0.487105 -0.103504,-1.193499 -0.232799,-1.569763 -0.129292,-0.376262 -0.281592,-1.16613 -0.338443,-1.755249 -0.05685,-0.589116 -0.119063,-1.132237 -0.138256,-1.206918 -0.0192,-0.07472 -0.08406,-0.647885 -0.144142,-1.273805 -0.06009,-0.625912 -0.212708,-1.146928 -0.339164,-1.157805 -0.126454,-0.01088 -0.211554,-0.233295 -0.189108,-0.494273 0.02245,-0.260965 -0.0893,-0.629085 -0.248314,-0.818037 -0.159019,-0.188941 -0.212814,-0.336976 -0.11955,-0.328955 0.265237,0.02281 -1.020604,-3.851412 -1.480309,-4.460166 -0.735193,-0.973548 -2.468591,-2.252916 -3.129475,-2.309757 -0.354882,-0.03052 -1.085103,-0.285372 -1.622717,-0.566335 -1.301323,-0.680097 -6.028941,-1.186227 -6.401397,-0.685329 -0.139916,0.188171 -0.379271,0.249276 -0.5319,0.135789 -0.152626,-0.113497 -0.287992,-0.08439 -0.300803,0.06456 -0.01281,0.14899 -0.202493,0.183844 -0.421507,0.07745 -0.461738,-0.224301 -3.076625,1.954206 -5.030328,4.190848 -0.68255,0.781405 -1.313709,1.474229 -1.402572,1.539612 -0.373758,0.275014 -1.008831,1.264123 -2.515173,3.917309 -0.648342,1.141953 -1.020209,3.969779 -0.638835,4.857929 0.189631,0.441593 0.141585,0.525836 -0.279261,0.48964 -0.746053,-0.06417 -0.862969,0.41358 -0.664277,2.714409 0.09828,1.138058 0.147287,2.743434 0.108917,3.567518 -0.03838,0.824082 0.05728,1.820113 0.212566,2.213403 0.206318,0.52255 0.197057,0.78684 -0.03441,0.98164 -0.218699,0.18406 -0.241865,0.37924 -0.07484,0.63058 0.444198,0.66844 1.163214,7.1858 0.962776,8.72692 -0.07999,0.61505 -0.01382,1.52918 0.147039,2.03139 0.363422,1.13461 0.540387,3.01383 0.381707,4.05342 -0.06601,0.43249 -0.02743,1.03333 0.08575,1.33518 0.728211,1.94223 0.750778,3.38407 0.05203,3.32397 -0.80434,-0.0692 -1.233652,-0.94011 -1.366976,-2.77317 -0.288443,-3.96575 -0.374446,-4.83029 -0.565033,-5.67986 -0.110078,-0.49069 -0.166649,-1.18805 -0.12571,-1.54967 0.152934,-1.35089 0.08619,-5.19016 -0.09941,-5.71809 -0.349071,-0.99294 -0.884485,-5.61423 -0.901235,-7.778767 -0.009,-1.169245 -0.08948,-2.789438 -0.178744,-3.60044 -0.08926,-0.810991 -0.131621,-2.33592 -0.09413,-3.388719 0.03749,-1.052802 -0.0063,-2.002624 -0.09723,-2.110719 -0.09097,-0.108093 -0.111588,-0.822195 -0.04582,-1.586891 0.06577,-0.764699 0.02288,-1.462259 -0.0953,-1.55014 -0.11819,-0.08785 -0.220973,-0.910414 -0.228412,-1.827858 -0.0074,-0.91743 -0.07523,-2.450128 -0.150634,-3.405997 -0.07541,-0.955866 -0.151102,-2.336642 -0.168206,-3.068408 -0.01711,-0.73176 -0.112229,-3.906747 -0.211393,-7.055528 -0.09916,-3.14877 -0.173569,-6.501227 -0.165344,-7.449903 0.0082,-0.948673 -0.06365,-1.851112 -0.159721,-2.005432 -0.09607,-0.154329 -0.111903,-0.81295 -0.03518,-1.463608 0.07673,-0.650669 0.142342,-2.258299 0.145834,-3.572524 0.0035,-1.314225 0.0451,-4.238447 0.09247,-6.49827 0.08827,-4.211498 0.08164,-4.952672 -0.07729,-8.637354 -0.05058,-1.172819 -0.09584,-2.610736 -0.100578,-3.195372 -0.0047,-0.584636 -0.09066,-1.667543 -0.19096,-2.406466 -0.100296,-0.738912 -0.209403,-2.256103 -0.24246,-3.371538 -0.03306,-1.115426 -0.09525,-2.58467 -0.138202,-3.264993 -0.0716,-1.133986 -0.03249,-1.23303 0.46978,-1.18983 0.737207,0.06341 0.94303,0.665578 0.981942,2.872842 0.01805,1.023953 0.119193,2.064046 0.224762,2.311302 0.105568,0.247256 0.145651,1.85674 0.08908,3.576629 -0.05658,1.719888 -0.01762,3.426313 0.08657,3.792047 0.104185,0.365733 0.10304,0.873282 -0.0025,1.12788 -0.105586,0.254608 -0.07641,1.137596 0.06482,1.962202 0.141242,0.824606 0.149436,1.490056 0.01821,1.47877 -0.131221,-0.01129 -0.253887,0.157413 -0.272592,0.37489 -0.01871,0.217477 0.07724,0.404989 0.213217,0.416684 0.135976,0.0117 0.223643,0.228364 0.194823,0.481486 -0.139996,1.229415 -0.203771,6.724583 -0.09313,8.024154 0.08319,0.977194 0.03317,1.492454 -0.149126,1.536283 -0.333675,0.08022 -0.489518,1.508884 -0.188974,1.732357 0.118202,0.08785 0.200356,1.321752 0.182568,2.741911 -0.01779,1.42016 0.05474,2.784883 0.161162,3.032726 0.106423,0.247841 0.173838,0.975806 0.14981,1.617699 -0.02403,0.6419 0.03483,1.293342 0.130791,1.447661 0.09596,0.154311 0.11317,1.602001 0.03824,3.217101 -0.07493,1.615089 -0.0642,3.079134 0.02385,3.253431 0.08805,0.174297 0.147736,1.12326 0.132632,2.108802 -0.0151,0.985541 0.05206,2.455996 0.149254,3.267669 0.09719,0.811685 0.124353,2.188297 0.06036,3.059136 -0.06399,0.87085 -0.01111,1.673675 0.11754,1.784054 0.128638,0.110429 0.183623,0.86055 0.122181,1.667032 -0.07401,0.97138 0.0036,1.522437 0.2299,1.632577 0.510807,0.248596 0.840271,-0.01354 0.90076,-0.716831 0.0297,-0.345353 0.178937,-0.691027 0.331629,-0.768157 0.152688,-0.0771 0.30694,-0.481127 0.342774,-0.89776 0.04524,-0.525997 0.230685,-0.794794 0.606765,-0.879499 0.297888,-0.06712 0.561329,-0.35124 0.585429,-0.631447 0.0241,-0.280194 0.269602,-0.703092 0.545559,-0.939777 0.275959,-0.236674 0.898091,-0.870302 1.382516,-1.408057 1.343683,-1.491616 3.840363,-3.387744 5.287621,-4.015735 1.525752,-0.662062 4.28642,-0.958987 5.901063,-0.634711 2.749872,0.552273 5.704811,1.486714 6.597829,2.086424 1.231584,0.82707 2.505871,2.267375 2.641617,2.985747 0.05782,0.306003 0.231822,0.925773 0.386671,1.377263 0.154851,0.45149 0.371286,1.127372 0.480968,1.501948 0.910188,3.108402 1.069719,3.73869 1.038414,4.102667 -0.01963,0.228226 0.138403,1.109581 0.351183,1.958577 0.21278,0.849006 0.311517,1.698763 0.219411,1.888368 -0.09211,0.189604 -0.0203,0.8042 0.159576,1.365757 0.179871,0.561561 0.284413,1.516621 0.232315,2.122355 -0.0521,0.605734 0.0076,1.223651 0.132583,1.373161 0.12502,0.149506 0.198742,0.866881 0.163829,1.594173 -0.03491,0.727286 0.09048,2.231843 0.278661,3.343466 0.188174,1.11163 0.264448,2.40283 0.169494,2.86935 -0.09495,0.46652 -0.09167,0.85519 0.0073,0.8637 0.323247,0.0278 0.364869,1.0417 0.05352,1.30374 -0.214026,0.18011 -0.175202,0.42461 0.131525,0.82829 0.275838,0.36302 0.411453,1.03333 0.37038,1.83066 -0.03563,0.69186 0.01226,1.47547 0.106457,1.74136 0.09419,0.26588 0.08851,0.7162 -0.01263,1.0007 -0.101141,0.28449 -0.03764,0.8867 0.141119,1.33825 0.198472,0.50137 0.23416,1.11262 0.09166,1.57004 -0.139189,0.44679 -0.120518,0.83292 0.04626,0.95695 0.284267,0.21137 0.188537,-0.40849 0.287907,0.46361 0.03013,0.26451 0.143975,0.90169 0.252974,1.41595 0.108996,0.51425 0.282132,1.33622 0.384742,1.8266 0.400007,1.9116 0.334732,1.7543 -0.181198,2.41111 -0.524357,0.66755 -1.240452,0.78419 -1.361947,0.22182 z"
       style="fill:#000000;stroke-width:0.26458332" />
    <path
       id="path22-5"
       d="m 85.610614,121.69151 c -0.09164,-0.0916 -0.525765,-0.21367 -0.964703,-0.27118 -0.438949,-0.0575 -1.091356,-0.29527 -1.449829,-0.52835 -0.35844,-0.23308 -0.871303,-0.42379 -1.139669,-0.42379 -0.87643,0 -4.133649,-2.56357 -4.656089,-3.66456 -0.27238,-0.57397 -0.59334,-1.0436 -0.713287,-1.0436 -0.283657,0 -2.727484,-3.71517 -2.649477,-4.02785 0.108992,-0.43685 -0.601425,-2.50822 -1.027406,-2.99563 -0.230808,-0.26409 -0.507148,-0.94362 -0.614082,-1.51007 -0.267309,-1.41613 -0.700842,-4.26649 -0.915423,-6.01895 -0.0982,-0.80185 -0.232176,-1.544687 -0.297704,-1.650739 -0.06551,-0.105989 -0.18809,-2.549549 -0.272347,-5.430011 -0.144326,-4.934886 0.0446,-6.954636 0.742726,-7.939902 0.114664,-0.161842 0.378592,-1.260228 0.586466,-2.440868 0.207919,-1.180628 0.488141,-2.214676 0.622757,-2.297875 0.134616,-0.08319 0.244787,-0.347455 0.244787,-0.587223 0,-0.579084 1.207211,-2.193758 1.503325,-2.01074 0.127977,0.07908 0.376434,-0.124731 0.552101,-0.452952 0.175644,-0.328212 0.584198,-0.596753 0.907871,-0.596753 0.323673,0 0.94246,-0.231731 1.375081,-0.514956 0.969385,-0.634667 5.701757,-0.744493 6.300046,-0.146215 0.201814,0.201801 0.638372,0.367249 0.970142,0.367657 0.886084,0.0012 3.985887,1.937848 5.097985,3.185198 1.417888,1.590318 2.961139,4.027681 3.638882,5.747067 0.32771,0.831465 0.700041,1.644504 0.827339,1.806744 0.127321,0.162255 0.319914,0.785969 0.428005,1.386048 0.108103,0.60008 0.389336,1.460785 0.625059,1.912689 0.235713,0.451907 0.429385,1.111778 0.430386,1.466367 0,0.354592 0.119591,0.717515 0.263572,0.806487 0.267987,0.165634 0.379115,0.661504 0.894725,3.992605 1.047626,6.768162 1.023114,10.459242 -0.08986,13.535972 -0.439105,1.21382 -0.935653,2.76978 -1.103478,3.45769 -0.39632,1.62448 -4.80463,6.2529 -5.955554,6.2529 -0.399612,0 -0.770675,0.12938 -0.824615,0.28751 -0.106434,0.3121 -3.065082,0.61993 -3.33774,0.34728 z m 3.884058,-2.46298 c 2.067292,-1.0441 3.328109,-2.02716 3.328109,-2.59496 0,-0.16692 0.202425,-0.38117 0.449837,-0.47612 0.479821,-0.18411 1.430689,-2.05642 1.776183,-3.49737 0.115042,-0.47991 0.310416,-1.00498 0.434122,-1.16682 0.226871,-0.29683 0.976826,-2.69144 1.013716,-3.23687 0.01112,-0.16184 0.101652,-0.42667 0.201491,-0.58851 0.388012,-0.62891 -0.472403,-8.848677 -1.247459,-11.91754 -0.821368,-3.252193 -3.092998,-9.406448 -3.993762,-10.819786 -0.543526,-0.852819 -0.988214,-1.637908 -0.988214,-1.744663 0,-0.342992 -2.160069,-2.204833 -3.737986,-3.221908 -1.737969,-1.120229 -4.462662,-1.858516 -6.882666,-1.864913 -1.592297,-0.0044 -1.681571,0.03859 -2.75233,1.319831 -0.608643,0.728288 -1.278467,1.324165 -1.488499,1.324165 -0.596832,0 -1.626374,1.995456 -1.962025,3.802646 -0.167637,0.902644 -0.519293,2.10463 -0.781508,2.671074 -0.389002,0.840307 -0.486594,2.24882 -0.530091,7.650773 -0.03225,4.008454 0.06139,6.760411 0.23737,6.974561 0.159907,0.19454 0.202636,0.63124 0.09498,0.97046 -0.109103,0.34373 -0.03614,0.80905 0.164734,1.05114 0.198299,0.23891 0.277196,0.5177 0.175344,0.61954 -0.101874,0.10187 0.09709,0.64177 0.441952,1.19986 0.514165,0.83192 0.554148,1.05981 0.221966,1.26511 -0.321393,0.19864 -0.237058,0.42585 0.408042,1.0992 0.53553,0.55897 0.747253,1.02068 0.62001,1.35223 -0.121148,0.31571 0.0033,0.64689 0.332927,0.88814 0.327743,0.23965 0.453841,0.57304 0.334428,0.8842 -0.137041,0.35717 0.05917,0.64181 0.688596,0.9989 0.484148,0.27467 0.962345,0.75406 1.062663,1.06532 0.210043,0.65181 0.399956,0.90562 2.074565,2.77257 1.290623,1.43886 4.115911,3.08011 6.127973,3.55983 1.449351,0.34556 3.081075,0.21266 4.175523,-0.34009 z"
       style="fill:#000000;stroke-width:0.29426026" />
    <path
       id="path18"
       d="m 145.28128,122.16181 c -0.29614,-0.31496 -0.86247,-1.74184 -0.92397,-2.32796 -0.0196,-0.18738 -0.0991,-0.80064 -0.17647,-1.36281 -0.0774,-0.56216 -0.0775,-1.16555 -0.11573,-2.14934 -0.0383,-0.98379 -0.0746,-1.78868 -0.081,-1.78868 -0.025,0 -0.0143,-5.12774 0.0112,-5.3661 0.0151,-0.14055 -0.0158,-2.31026 -0.0686,-4.82164 -0.0724,-3.45391 -0.0568,-4.626086 0.0647,-4.812429 0.12793,-0.196194 0.11995,-0.246339 -0.0393,-0.246339 -0.15575,0 -0.22184,-0.348101 -0.29917,-1.575756 -0.0547,-0.866653 -0.0947,-2.11235 -0.0889,-2.76821 0.005,-0.655847 -0.0487,-1.729076 -0.12106,-2.384924 -0.0723,-0.65586 -0.15465,-1.489959 -0.18303,-1.853566 -0.0283,-0.363594 -0.13042,-0.723049 -0.22669,-0.798767 -0.13813,-0.108601 -0.12194,-0.212335 0.0767,-0.491663 0.24702,-0.347369 0.2463,-0.360445 -0.0387,-0.698448 -0.15978,-0.189449 -0.29054,-0.422642 -0.29054,-0.518213 0,-0.09555 -0.0452,-0.138242 -0.10035,-0.09484 -0.0552,0.0434 -0.10769,-0.162853 -0.11661,-0.458407 -0.0325,-1.076123 -0.10185,-1.397189 -0.39191,-1.815012 -0.16264,-0.234232 -0.3351,-0.694191 -0.38324,-1.022115 -0.0481,-0.327935 -0.26501,-0.902863 -0.48188,-1.277645 -0.21687,-0.37477 -0.45476,-0.85526 -0.52864,-1.067747 -0.0738,-0.212488 -0.28234,-0.457961 -0.46324,-0.545493 -0.31373,-0.151787 -0.70168,-0.798887 -0.64137,-1.069801 0.0157,-0.07028 -0.0469,-0.130186 -0.1389,-0.133142 -0.21546,-0.007 -0.90357,-0.774987 -0.90357,-1.008557 0,-0.09818 -0.0953,-0.178527 -0.21175,-0.178527 -0.11645,0 -0.57754,-0.272826 -1.02462,-0.606287 -0.87648,-0.653707 -1.50799,-0.877947 -2.99532,-1.063582 -1.6618,-0.207408 -4.03515,-0.03586 -4.19999,0.303518 -0.0947,0.194823 -0.75515,0.523945 -1.27089,0.633244 -0.21949,0.04649 -0.58091,0.249357 -0.80318,0.450764 -0.22228,0.20141 -0.41856,0.349426 -0.43617,0.328932 -0.0176,-0.02049 -0.12306,-0.0014 -0.23427,0.04326 -0.11121,0.04429 -0.29256,0.116441 -0.403,0.160343 -0.11044,0.0439 -0.20079,0.240292 -0.20079,0.436415 0,0.213734 -0.38155,0.847172 -0.95239,1.581107 -1.36793,1.758773 -1.39376,1.802096 -1.34679,2.258289 0.0234,0.227816 -0.0219,0.41422 -0.10077,0.41422 -0.0789,0 -0.14344,0.100551 -0.14344,0.223395 0,0.122883 -0.12852,0.39895 -0.28558,0.613494 -0.20713,0.282942 -0.30214,0.677786 -0.34588,1.437523 -0.0333,0.576095 -0.0776,1.354074 -0.0987,1.728844 -0.0211,0.374782 -0.0462,0.782401 -0.0558,0.905838 -0.0109,0.143037 -0.11276,0.185845 -0.28055,0.118089 -0.20444,-0.08259 -0.28256,-0.0082 -0.34961,0.331436 -0.0474,0.240763 -0.0275,0.532596 0.0445,0.648487 0.072,0.115949 0.1651,0.816358 0.20694,1.556577 0.0419,0.740207 0.12521,1.391798 0.18528,1.447988 0.06,0.05622 0.12202,0.408785 0.13769,0.783555 0.0158,0.374782 0.0592,1.179695 0.0967,1.788696 0.0374,0.609015 0.10163,1.797208 0.14252,2.640447 0.0408,0.843244 0.10185,1.648159 0.13541,1.788699 0.0335,0.14052 0.092,0.98377 0.12973,1.87387 0.0378,0.89007 0.10791,2.4999 0.15582,3.57737 0.048,1.07749 0.10421,2.49567 0.12514,3.15153 0.0209,0.65583 0.083,1.65239 0.13804,2.21455 0.0549,0.56216 0.0909,1.3063 0.0795,1.65362 -0.0112,0.34735 0.0383,0.67767 0.10991,0.73406 0.0717,0.0563 0.13036,0.42999 0.13036,0.8302 0,0.42506 0.1303,1.05518 0.31334,1.51529 0.2446,0.61483 0.27398,0.80688 0.13387,0.8753 -0.0987,0.0482 -0.17948,0.20004 -0.17948,0.33742 0,0.44839 -0.27951,1.20435 -0.37581,1.0164 -0.051,-0.0996 -0.25663,-0.23197 -0.45697,-0.29434 -0.20036,-0.0624 -0.41863,-0.24667 -0.48507,-0.40953 -0.13361,-0.32748 -0.28871,-2.24386 -0.3618,-4.46972 -0.0261,-0.79638 -0.0842,-2.15346 -0.12907,-3.01571 -0.0503,-0.96692 -0.0281,-1.69486 0.058,-1.89943 0.10668,-0.25355 0.0934,-0.35422 -0.0561,-0.42728 -0.12983,-0.0635 -0.1885,-0.3126 -0.17438,-0.741 0.0239,-0.72459 -0.20244,-5.06042 -0.50497,-9.6741 -0.17904,-2.730662 -0.4614,-5.279455 -0.86668,-7.823699 -0.0933,-0.585404 -0.0904,-0.873364 0.01,-0.951973 0.0945,-0.07442 0.0729,-0.187094 -0.0637,-0.33147 -0.11392,-0.120316 -0.20714,-0.39649 -0.20714,-0.613726 0,-0.217224 -0.0602,-0.442346 -0.13386,-0.500249 -0.0736,-0.05785 -0.13386,-0.255112 -0.13386,-0.43824 0,-0.183128 -0.0558,-0.466072 -0.12409,-0.628773 -0.14463,-0.344779 -0.32167,-0.939481 -0.31625,-1.062382 0.002,-0.04688 0.0395,-0.329369 0.0832,-0.627817 0.0674,-0.460765 0.0368,-0.550723 -0.2031,-0.59624 -0.26583,-0.0504 -0.37796,-0.210914 -0.5731,-0.82016 -0.13173,-0.411293 -0.39239,-0.942401 -0.60765,-1.238133 -0.10996,-0.151082 -0.35054,-0.547982 -0.53459,-0.882005 -0.18406,-0.334021 -0.59067,-0.773808 -0.90359,-0.977305 -0.3129,-0.203495 -0.56891,-0.433065 -0.56891,-0.510147 0,-0.07709 -0.11114,-0.140159 -0.24698,-0.140159 -0.13585,0 -0.356,-0.153313 -0.48927,-0.3407 -0.13326,-0.187393 -0.32544,-0.340707 -0.42705,-0.340707 -0.10163,0 -0.32635,-0.118076 -0.49943,-0.26238 -0.18334,-0.152882 -0.47044,-0.226449 -0.68788,-0.176267 -0.24078,0.05555 -0.60635,-0.06291 -1.03025,-0.33385 -0.77336,-0.494314 -0.76891,-0.493361 -0.76891,-0.164438 0,0.270925 -0.10883,0.31078 -0.70953,0.259837 -0.20618,-0.0175 -0.45719,0.05518 -0.55779,0.16142 -0.10067,0.106271 -0.32348,0.211557 -0.49525,0.233982 -0.51944,0.06779 -2.43809,0.646245 -2.68657,0.809956 -0.12786,0.08423 -0.32363,0.153147 -0.43505,0.153147 -0.11144,0 -0.3231,0.153321 -0.47034,0.340704 -0.14725,0.187386 -0.38821,0.340707 -0.53546,0.340707 -0.14724,0 -0.26773,0.06833 -0.26773,0.151884 0,0.08352 -0.15306,0.200772 -0.34014,0.26052 -0.18706,0.05976 -0.30235,0.186421 -0.25617,0.281485 0.13207,0.271976 -0.30219,0.979063 -0.63862,1.039816 -0.19919,0.03599 -0.3196,0.190535 -0.34816,0.446922 -0.024,0.215575 -0.33755,1.001322 -0.69676,1.746116 -0.35919,0.744782 -0.61063,1.355333 -0.55872,1.356767 0.052,0.0012 0.0332,0.05891 -0.0418,0.127767 -0.0749,0.06882 -0.20385,0.431788 -0.28652,0.80657 -0.23922,1.084451 -0.49722,1.840139 -0.7326,2.145852 -0.20339,0.264187 -0.2334,0.260922 -0.44127,-0.04807 -0.12652,-0.18804 -0.18884,-0.468652 -0.14403,-0.648372 0.0506,-0.202725 -0.006,-0.377488 -0.15731,-0.485178 -0.48135,-0.342797 -0.20743,-2.178374 0.45713,-3.063229 0.0929,-0.123827 0.16907,-0.365706 0.16907,-0.537554 0,-0.493868 0.55996,-1.699553 1.03678,-2.232312 0.23964,-0.267759 0.43909,-0.546674 0.44323,-0.619809 0.0138,-0.244236 1.58288,-1.834095 1.98493,-2.011231 0.21815,-0.09612 0.51139,-0.306922 0.65166,-0.468471 0.14026,-0.161542 0.31354,-0.293718 0.38505,-0.293718 0.0716,0 0.20037,-0.08952 0.28635,-0.198949 0.1652,-0.210229 0.98589,-0.633509 1.43664,-0.740974 0.14725,-0.0351 0.38821,-0.09992 0.53546,-0.144037 0.14724,-0.0441 0.5515,-0.16288 0.89833,-0.263933 0.69673,-0.202985 3.70773,-0.201382 3.92273,0.0021 0.0748,0.07071 0.37592,0.158129 0.66931,0.194262 0.29341,0.03611 0.67372,0.162591 0.84513,0.281028 0.17142,0.118441 0.39731,0.173517 0.502,0.122393 0.10464,-0.05113 0.19032,-0.02763 0.19032,0.0522 0,0.135987 0.42474,0.378185 0.74554,0.425134 0.50418,0.07378 2.01726,1.886813 1.95638,2.344197 -0.0268,0.201569 0.0723,0.336051 0.30235,0.409476 0.18828,0.06014 0.34232,0.185816 0.34232,0.27929 0,0.09349 0.1518,0.321912 0.33733,0.507629 0.423,0.423441 0.778,1.277384 0.67417,1.621732 -0.0434,0.1437 0.0728,0.606387 0.25804,1.028192 0.18526,0.421803 0.33682,0.905103 0.33682,1.074 0,0.168884 0.0904,0.42206 0.2008,0.562597 0.11043,0.140551 0.20079,0.337664 0.20079,0.438052 0,0.100432 0.0533,0.182522 0.11867,0.182522 0.11905,0 0.28852,-0.825386 0.29376,-1.430748 0.006,-0.827696 1.79068,-4.020515 2.24587,-4.020515 0.084,0 0.15283,-0.114982 0.15283,-0.255525 0,-0.140539 0.0452,-0.257708 0.10045,-0.260366 0.0552,-0.0025 0.36929,-0.309294 0.69794,-0.681406 0.32864,-0.372112 0.6489,-0.67657 0.71172,-0.67657 0.0628,0 0.31161,-0.191648 0.55292,-0.425881 0.24132,-0.234232 0.50493,-0.42588 0.58582,-0.42588 0.0809,0 0.34625,-0.148877 0.58974,-0.330842 0.2435,-0.181965 0.60307,-0.367316 0.79909,-0.41189 0.19602,-0.04456 0.4811,-0.165983 0.63353,-0.269799 0.45275,-0.308351 2.36417,-0.553548 4.33458,-0.55604 1.79768,-0.0025 2.41316,0.132503 2.90812,0.636811 0.11042,0.112527 0.36223,0.253337 0.55955,0.312904 0.19733,0.05956 0.43975,0.211396 0.53877,0.337384 0.0991,0.125997 0.40683,0.366055 0.68408,0.533469 0.31857,0.192382 0.49099,0.405761 0.46854,0.579843 -0.0573,0.444173 0.1469,0.701327 0.55687,0.701327 0.29444,0 0.42255,0.115221 0.55657,0.500535 0.0958,0.275297 0.31045,0.579599 0.4771,0.676228 0.19365,0.112288 0.27462,0.269773 0.22439,0.436395 -0.0433,0.143392 -0.0119,0.270294 0.0695,0.282006 0.30574,0.0439 0.35735,0.07812 0.70471,0.466611 0.19566,0.218833 0.39475,0.662562 0.44245,0.986053 0.0477,0.32349 0.16957,0.628646 0.27086,0.678105 0.10582,0.05168 0.17909,0.315686 0.17228,0.620911 -0.006,0.29203 0.0579,0.560556 0.14312,0.596718 0.0853,0.03617 0.15536,0.155178 0.15581,0.264478 4e-4,0.109293 0.0931,0.423681 0.20565,0.69861 0.11266,0.274909 0.17633,0.594363 0.14149,0.709893 -0.0348,0.115485 0.0199,0.250714 0.12175,0.300418 0.21061,0.102876 0.60119,1.631956 0.60119,2.353662 0,0.26407 0.0602,0.48014 0.13388,0.48014 0.0736,0 0.13385,0.263312 0.13385,0.585136 0,0.321834 0.0653,0.800946 0.14528,1.064701 0.0798,0.263757 0.14795,1.190275 0.15123,2.058927 0.003,0.868639 0.0604,1.622274 0.12723,1.674742 0.0668,0.05249 0.11576,0.376637 0.109,0.72039 -0.0155,0.783835 0.10228,3.485392 0.28682,6.587306 0.16325,2.74385 0.17081,3.42757 0.0437,3.96069 -0.0502,0.2108 -0.0392,0.3832 0.0246,0.38312 0.0637,-8e-5 0.10131,0.55569 0.0833,1.23505 -0.0614,2.32221 -0.029,6.98522 0.0496,7.14712 0.12243,0.2521 0.14801,1.37507 0.0401,1.76289 -0.0534,0.19231 -0.0433,0.47239 0.0227,0.62239 0.0659,0.15 0.13339,0.66631 0.14982,1.14738 0.0231,0.67575 0.0223,0.34731 0.31743,0.80296 0.21011,0.32437 0.46154,0.58976 0.55874,0.58976 0.40642,0 0.38206,1.3227 -0.0416,2.25715 -0.2449,0.54016 -0.62534,0.59723 -1.04021,0.15597 z m -42.6549,-0.83649 c -0.24878,-0.13313 -0.40714,-0.36983 -0.45954,-0.68689 -0.13393,-0.81044 -0.11869,-2.16146 0.0296,-2.63829 0.0773,-0.24802 0.11634,-0.48157 0.0869,-0.51899 -0.0464,-0.059 -0.0586,-2.22274 -0.0461,-8.18223 0.002,-0.81749 -0.0291,-1.6224 -0.0684,-1.78869 -0.068,-0.28808 -0.26462,-5.84374 -0.23527,-6.64796 0.0509,-1.389836 -0.0427,-2.816035 -0.20956,-3.198487 -0.10034,-0.229986 -0.10732,-0.443535 -0.0208,-0.64017 0.0714,-0.162283 0.0855,-0.386144 0.0314,-0.497462 -0.0541,-0.111282 -0.10935,-1.220977 -0.12288,-2.465926 -0.0166,-1.531696 -0.0793,-2.347376 -0.19366,-2.522816 -0.11044,-0.169305 -0.13943,-0.495385 -0.0837,-0.939749 0.0471,-0.374279 0.0397,-0.680484 -0.0165,-0.680484 -0.056,0 -0.11069,-0.249151 -0.12133,-0.553651 -0.0493,-1.409973 -0.18508,-3.692328 -0.26107,-4.386563 -0.046,-0.421619 -0.10582,-0.996557 -0.13257,-1.277636 -0.0268,-0.281077 -0.11231,-0.84567 -0.1901,-1.254642 -0.0778,-0.408977 -0.10453,-0.891767 -0.0594,-1.072875 0.0452,-0.181109 0.0155,-0.43158 -0.0661,-0.556602 -0.0815,-0.125034 -0.14339,-0.447147 -0.13746,-0.715825 0.006,-0.268672 -0.0535,-1.126493 -0.13244,-1.906266 -0.0788,-0.779772 -0.10795,-1.490362 -0.0648,-1.579083 0.0431,-0.08872 0.0166,-0.408962 -0.059,-0.711629 -0.0755,-0.302674 -0.232339,-0.868861 -0.266777,-1.993183 -0.03446,-1.124323 -0.367925,-0.461133 -0.414423,-0.64955 -0.06037,-0.244618 0.02732,-0.478967 0.306633,-0.819497 0.369807,-0.450863 0.403727,-0.46092 0.621187,-0.184175 0.1601,0.203746 0.20277,0.426982 0.14037,0.734323 -0.14183,0.698339 -0.0373,1.421024 0.0521,1.515129 0.0445,0.04687 0.0968,0.353479 0.11621,0.681411 0.0194,0.327925 0.17135,0.283132 0.25602,0.635445 0.12044,0.50124 0.11618,0.730341 -0.0195,1.05321 -0.0959,0.228053 -0.13018,0.551129 -0.0766,0.722239 0.0532,0.170286 0.11715,0.654569 0.14192,1.076195 0.0247,0.421618 0.11669,0.996556 0.20426,1.277635 0.0875,0.281079 0.14791,0.994908 0.13405,1.586285 -0.0147,0.629439 0.041,1.176797 0.13462,1.320228 0.12369,0.189637 0.12373,0.300278 2.5e-4,0.489635 -0.12373,0.189706 -0.12225,0.33315 0.006,0.638817 0.0962,0.227991 0.18167,1.199784 0.20296,2.304892 0.0202,1.050892 0.10142,2.064351 0.18038,2.252143 0.079,0.187783 0.13319,0.715305 0.12047,1.172244 -0.0127,0.456959 0.0203,0.920207 0.0734,1.029461 0.0531,0.109294 0.11613,0.843361 0.14018,1.631362 0.024,0.788011 0.0767,1.500655 0.11704,1.583662 0.0404,0.08306 0.0847,0.721277 0.0986,1.418347 0.014,0.697071 0.0715,1.344066 0.12789,1.437758 0.0563,0.09366 0.13842,1.37147 0.18237,2.839524 0.044,1.468046 0.13821,2.864336 0.20947,3.102886 0.0867,0.29033 0.0835,0.47001 -0.01,0.54351 -0.0806,0.0632 -0.10024,0.30011 -0.0466,0.55968 0.0511,0.24743 0.11372,1.35261 0.13898,2.45596 0.0252,1.10336 0.0822,2.08075 0.12646,2.17199 0.0443,0.0913 0.009,0.16589 -0.0785,0.16589 -0.11648,0 -0.1324,0.28491 -0.0594,1.06469 0.0547,0.5856 0.12538,2.06129 0.15685,3.27928 0.0874,3.38615 0.1733,4.30596 0.53079,5.68691 0.10636,0.41068 0.16328,0.78491 0.1266,0.83156 -0.0367,0.0467 -0.006,0.22811 0.0672,0.40318 0.11159,0.26531 0.0856,0.31831 -0.15618,0.31831 -0.26029,0 -0.28284,0.0687 -0.21951,0.66949 0.0619,0.58742 0.0384,0.66638 -0.1919,0.6443 -0.14434,-0.0138 -0.43327,-0.11651 -0.64203,-0.22826 z"
       style="fill:#000000;stroke-width:0.1510095" />
    <path
       id="path12"
       d="m 167.22237,119.90338 c -0.0537,-0.11235 -0.50802,-0.14281 -1.07038,-0.072 -0.53729,0.0676 -1.4038,0.0196 -1.92558,-0.10692 -0.52179,-0.12646 -1.31853,-0.30901 -1.77054,-0.40561 -0.45201,-0.0966 -0.98371,-0.32182 -1.18153,-0.50047 -0.19783,-0.17864 -0.45762,-0.32482 -0.57732,-0.32482 -0.46803,0 -3.79794,-2.09397 -4.41233,-2.77462 -0.24093,-0.26693 -0.64421,-0.61404 -0.89615,-0.77136 -0.69459,-0.43372 -2.6575,-2.65762 -3.25843,-3.69167 -0.29302,-0.50422 -0.59829,-0.91674 -0.6784,-0.91674 -0.0801,0 -0.10557,-0.13468 -0.0566,-0.29927 0.049,-0.16458 0.021,-0.35346 -0.0622,-0.41973 -0.0832,-0.0663 -0.43959,-0.88866 -0.79206,-1.8275 -0.35246,-0.93889 -0.78637,-1.94554 -0.96421,-2.23706 -0.51909,-0.8508 -0.91702,-2.51397 -1.09792,-4.58888 -0.0926,-1.062347 -0.2107,-2.019707 -0.26236,-2.127474 -0.13995,-0.291946 -0.22019,-4.037963 -0.0942,-4.396886 0.0599,-0.170519 0.11851,-0.860466 0.13033,-1.533194 0.0271,-1.540676 0.38981,-3.350809 0.7697,-3.840952 0.16675,-0.215151 0.25728,-0.543685 0.21173,-0.768325 -0.0437,-0.21586 0.0173,-0.517529 0.13596,-0.670394 0.11856,-0.152867 0.17325,-0.332505 0.12152,-0.399209 -0.0518,-0.06671 -0.006,-0.257074 0.10021,-0.423057 0.10684,-0.165984 0.14611,-0.402248 0.0872,-0.525025 -0.0589,-0.12279 0.073,-0.43826 0.29286,-0.701048 0.21994,-0.262788 0.36023,-0.52893 0.31176,-0.591426 -0.0484,-0.0625 0.0271,-0.262133 0.16789,-0.443672 0.14079,-0.181525 0.25599,-0.440853 0.25599,-0.576278 0,-0.135422 0.14229,-0.378461 0.31622,-0.540094 0.17393,-0.161621 0.31624,-0.359566 0.31624,-0.439859 0,-0.178132 1.61185,-2.21031 1.75315,-2.21031 0.0554,0 0.36937,-0.275213 0.69766,-0.611582 0.32829,-0.33637 0.7388,-0.611582 0.91224,-0.611582 0.32164,0 1.41669,-0.76872 1.51221,-1.061582 0.0289,-0.08885 0.18574,-0.161577 0.34832,-0.161577 0.1626,0 0.45905,-0.08436 0.65882,-0.187463 1.94769,-1.005282 4.88031,-1.388758 7.39939,-0.967565 0.39135,0.06542 0.81827,0.130259 0.9487,0.144064 0.13045,0.0138 0.84198,0.258466 1.58118,0.543695 2.26946,0.875713 3.29307,1.67043 5.52382,4.288664 0.31002,0.363864 0.60233,0.662008 0.64958,0.662546 0.0473,5.23e-4 0.29629,0.46317 0.5534,1.028072 0.31897,0.700747 0.59759,1.063025 0.87691,1.14016 0.22518,0.06212 0.52525,0.356813 0.66686,0.654733 0.1416,0.297936 0.47638,0.856929 0.74397,1.242219 0.43469,0.625944 0.48152,0.81752 0.43994,1.799519 l -0.0466,1.098996 -1.10682,0.08059 c -0.60873,0.04429 -1.71162,0.124758 -2.4508,0.178828 -1.23547,0.0903 -1.97545,0.184225 -3.2414,0.411341 -0.2609,0.04678 -0.47436,0.09501 -0.47436,0.107197 0,0.01181 -0.39133,0.06014 -0.86963,0.10654 -1.75741,0.170451 -3.08158,0.344757 -3.17308,0.417658 -0.0517,0.04114 -1.26061,0.22413 -2.68655,0.406587 -1.42594,0.182443 -2.6558,0.38208 -2.73306,0.443632 -0.0772,0.06158 -0.89706,0.142068 -1.82182,0.178931 -0.92478,0.03683 -1.95779,0.11768 -2.29558,0.179455 -0.36976,0.06774 -0.7049,0.01534 -0.84216,-0.131532 -0.17936,-0.19193 -0.25793,-0.181539 -0.36829,0.04876 -0.10471,0.218404 -0.49289,0.29268 -1.5296,0.29268 -0.76411,0 -1.44086,0.09174 -1.50391,0.203855 -0.13936,0.247889 -0.88398,-0.248857 -1.12806,-0.752534 -0.12809,-0.264387 -0.0948,-0.448494 0.14251,-0.789241 0.28763,-0.41289 0.39933,-0.434079 1.57452,-0.298828 0.69571,0.08007 1.43544,0.136997 1.64386,0.126461 0.20839,-0.01043 0.4678,0.07601 0.57642,0.192285 0.1365,0.146052 0.5274,0.143418 1.26508,-0.0091 0.58714,-0.120958 1.39503,-0.212806 1.7953,-0.204158 1.07049,0.02319 3.30709,-0.154505 3.45783,-0.274621 0.18754,-0.149459 1.46286,-0.317199 3.23112,-0.424998 0.84365,-0.0515 2.07501,-0.237614 2.73634,-0.413741 0.66135,-0.176126 1.71433,-0.363432 2.33995,-0.416256 0.62563,-0.05281 1.42213,-0.138437 1.76998,-0.190292 0.34786,-0.05191 1.34018,-0.189913 2.20517,-0.306819 0.86498,-0.116895 1.63592,-0.294095 1.7132,-0.393745 0.14658,-0.188981 -0.23214,-1.32463 -0.51757,-1.552076 -0.0875,-0.06972 -0.6461,-0.878236 -1.24132,-1.796702 -1.37259,-2.117948 -2.46126,-3.511814 -3.26629,-4.181987 -0.92085,-0.766582 -2.57621,-1.845162 -2.66203,-1.734507 -0.0405,0.05229 -0.45439,-0.05465 -0.91953,-0.237587 -1.05745,-0.416086 -4.33003,-0.900161 -4.59875,-0.680243 -0.10993,0.08996 -0.50643,0.164981 -0.88112,0.166697 -0.93195,0.0041 -2.91494,0.410872 -3.13645,0.643099 -0.0995,0.104443 -0.27743,0.163625 -0.39529,0.131649 -0.11786,-0.03197 -0.19833,0.04939 -0.17883,0.18095 0.0318,0.214563 -1.18591,0.67831 -1.78119,0.67831 -0.12542,0 -0.3169,0.183466 -0.42554,0.407712 -0.10861,0.224248 -0.27815,0.407726 -0.37675,0.407726 -0.0986,0 -0.45114,0.321078 -0.78344,0.713511 -0.33229,0.392432 -0.66441,0.713508 -0.73801,0.713508 -0.22509,0 -0.66954,0.671824 -0.99618,1.505764 -0.17067,0.435757 -0.42275,0.832265 -0.5602,0.881145 -0.21818,0.07757 -0.93598,2.574398 -0.93598,3.255764 0,0.122003 -0.14232,0.269679 -0.31623,0.328322 -0.2137,0.07208 -0.31624,0.278069 -0.31624,0.635355 0,0.290804 -0.0784,0.528733 -0.17403,0.528733 -0.10918,0 -0.15301,0.340945 -0.11762,0.914639 0.0334,0.541956 -0.0145,0.949695 -0.11753,1.000699 -0.30085,0.148844 -0.54185,2.392793 -0.46207,4.30238 0.18716,4.47999 0.23957,5.22714 0.39256,5.59569 0.0894,0.21525 0.16245,0.60635 0.16245,0.86905 0,0.26274 0.11078,0.6816 0.24614,0.93078 0.13538,0.24919 0.20509,0.45309 0.15492,0.45309 -0.17292,0 0.59109,1.73498 1.20115,2.72775 0.46967,0.76429 0.61143,1.17646 0.61143,1.77769 0,0.6994 0.0672,0.83221 0.63125,1.2475 0.34912,0.25704 0.6318,0.62108 0.63247,0.8145 6.9e-4,0.35178 0.83031,1.58695 1.06521,1.58695 0.0693,0 0.19618,0.19547 0.28203,0.43441 0.0859,0.23895 0.47626,0.66181 0.86761,0.93974 0.39133,0.2779 1.26067,0.99978 1.93184,1.60417 0.67119,0.60437 1.2713,1.09886 1.33361,1.09886 0.11007,0 1.29585,0.66661 1.81434,1.01996 0.14148,0.0965 0.53283,0.2374 0.86964,0.31328 0.33682,0.0758 0.88813,0.37782 1.22514,0.67095 0.66883,0.58174 1.62325,0.78233 4.44699,0.93453 3.59808,0.19397 3.67964,0.18806 6.95715,-0.50327 0.60875,-0.12843 1.24911,-0.31131 1.42304,-0.40645 0.17393,-0.0951 0.65422,-0.22364 1.0673,-0.28554 1.86013,-0.27881 2.26611,-0.37376 2.45801,-0.57485 0.11269,-0.11807 0.4632,-0.20216 0.77893,-0.18685 0.31574,0.0154 0.66997,-0.0749 0.7872,-0.20024 0.11723,-0.1254 0.25822,-0.16989 0.31333,-0.0987 0.055,0.071 0.19588,0.0269 0.31281,-0.0984 0.11772,-0.12592 0.42448,-0.17283 0.6874,-0.10509 0.26114,0.0673 0.64706,0.0213 0.8576,-0.1025 0.47051,-0.27641 1.12737,-0.0884 1.26112,0.361 0.0813,0.27336 0.02,0.31365 -0.33832,0.22267 -0.24071,-0.061 -0.72226,0.0174 -1.07012,0.17459 -0.34786,0.1571 -0.96625,0.28704 -1.37419,0.28872 -0.40795,8.9e-4 -0.77978,0.0825 -0.82628,0.17946 -0.0465,0.097 -0.35309,0.24332 -0.68133,0.32517 -0.32822,0.0817 -0.95253,0.23827 -1.38735,0.34765 -0.43483,0.10929 -1.00405,0.22787 -1.26494,0.2634 -0.26088,0.0354 -0.59992,0.13114 -0.75341,0.21248 -0.15348,0.0814 -0.42048,0.10035 -0.59333,0.0418 -0.1827,-0.0615 -0.36805,0.0181 -0.44284,0.19035 -0.0737,0.17003 -0.45,0.33513 -0.88271,0.38744 -0.41475,0.0501 -0.80431,0.13113 -0.86565,0.18003 -0.0614,0.0489 -0.67789,0.15106 -1.37008,0.22707 -0.69219,0.0759 -1.30891,0.17725 -1.37049,0.22498 -0.24546,0.19025 -3.12833,0.2405 -3.21674,0.0562 z"
       style="fill:#000000;stroke-width:0.17953718" />
  </g>
</svg>
