<?xml version="1.0" encoding="UTF-8" standalone="no"?>
<svg
   xmlns:dc="http://purl.org/dc/elements/1.1/"
   xmlns:cc="http://creativecommons.org/ns#"
   xmlns:rdf="http://www.w3.org/1999/02/22-rdf-syntax-ns#"
   xmlns:svg="http://www.w3.org/2000/svg"
   xmlns="http://www.w3.org/2000/svg"
   viewBox="0 0 201.6243 109.85629"
   height="109.85629"
   width="201.6243"
   id="svg45"
   version="1.1">
  <metadata
     id="metadata51">
    <rdf:RDF>
      <cc:Work
         rdf:about="">
        <dc:format>image/svg+xml</dc:format>
        <dc:type
           rdf:resource="http://purl.org/dc/dcmitype/StillImage" />
        <dc:title></dc:title>
      </cc:Work>
    </rdf:RDF>
  </metadata>
  <defs
     id="defs49" />
  <path
     id="path79"
     d="m 199.18521,91.448684 c -1.54076,0.3867 -8.69335,0.7479 -15.89465,0.8026 -14.49456,0.1101 -18.82242,-1.1013 -22.26251,-6.2312 -2.21505,-3.3031 -2.62978,-14.2624 -0.71305,-18.8431 3.86454,-9.2356 17.76681,-12.2772 25.3823,-5.5532 0.825,0.7284 2.24206,1.8662 3.14902,2.5285 0.90697,0.6622 1.937,2.1762 2.28895,3.3644 0.53682,1.8123 -0.0511,2.4864 -3.64902,4.1836 -4.88477,2.3043 -21.61311,6.6652 -22.43084,5.8474 -0.2974,-0.2974 -0.24957,-1.458 0.10628,-2.5792 0.51059,-1.6087 2.33434,-2.4011 8.65046,-3.7584 4.4019,-0.9459 8.67633,-2.2118 9.49873,-2.8132 2.15862,-1.5784 0.82644,-3.9797 -2.9693,-5.3523 -4.22628,-1.5282 -7.1638,-1.5077 -8.82285,0.062 -0.72679,0.6875 -1.94739,1.25 -2.71244,1.25 -0.76506,0 -1.89006,0.9 -2.5,2 -0.60995,1.1 -1.44846,2.2528 -1.86337,2.5617 -0.73536,0.5476 -0.83367,1.7485 -0.72979,8.9144 0.058,3.9981 1.99852,7.4083 5.23417,9.1982 1.44543,0.7996 7.38504,1.3164 16.6102,1.4454 14.05169,0.1964 19.74292,1.4379 13.62771,2.9727 z m -52.88578,10.729996 c -2.59468,0.9957 -3.42659,-1.0213 -4.05145,-9.822796 -0.81507,-11.4808 -5.92413,-31.4996 -8.03911,-31.4996 -0.25387,0 -1.46861,2.1375 -2.69941,4.75 -1.73797,3.689 -2.29081,6.8497 -2.47501,14.15 -0.3706,14.6872 -3.24277,15.0382 -9.00202,1.1 -4.55138,-11.0149 -7.54721,-15 -11.27647,-15 h -2.83955 l 0.3631,8.75 c 0.39051,9.4105 0.78125,12.5175 2.35808,18.75 1.39981,5.5329 1.30201,7.499996 -0.3729,7.499996 -1.35117,0 -2.11973,-1.426596 -3.05459,-5.670096 -0.22172,-1.0065 -0.87781,-3.4019 -1.45797,-5.3233 -0.58016,-1.9214 -1.05483,-4.9214 -1.05483,-6.6667 0,-1.7453 -0.43942,-3.3232 -0.97649,-3.5066 -0.53707,-0.1833 -1.0799,-2.83 -1.2063,-5.8815 -0.17837,-4.3063 0.28119,-6.3749 2.05315,-9.242 2.0492,-3.3157 2.66274,-3.6639 5.99198,-3.4005 4.5167,0.3572 9.17828,4.2368 11.6337,9.6819 2.67959,5.9423 4.09445,5.7298 5.43838,-0.8168 1.66135,-8.0928 4.0267,-12.3514 7.49546,-13.495 2.56067,-0.8443 3.19074,-0.6374 5,1.6414 2.59769,3.2719 4.98478,11.4352 6.92424,23.6792 2.42974,15.3392 2.7015,19.764696 1.24801,20.322396 z M 84.974805,86.846684 c -1.1455,2.8246 -5.84613,6.7252 -10.68276,8.8647 -12.97544,5.739596 -24.26693,-1.2982 -23.03134,-14.3551 0.68507,-7.2394 2.11416,-10.8821 5.42736,-13.8342 2.82215,-2.5145 8.00924,-4.5925 8.00924,-3.2085 0,1.4388 -2.12265,4.5427 -3.10661,4.5427 -2.71898,0 -6.89339,8.2814 -6.89339,13.6754 0,3.6932 2.78264,8.2781 5.7979,9.5531 3.62299,1.5319 9.13841,1.7134 12.2021,0.4014 3.87839,-1.6609 9,-7.474 9,-10.2151 0,-3.3498 -3.53926,-8.4628 -8.15439,-11.7802 -4.31812,-3.104 -5.35989,-6.1766 -1.59561,-4.7062 9.11579,3.5607 13.34421,8.1926 13.51128,14.8005 0.0664,2.6241 -0.15135,5.4418 -0.48378,6.2615 z m -43.03244,23.009596 c -1.46533,0 -3.86578,-3.9967 -4.71057,-7.843 -0.7784,-3.543996 -0.98078,-4.630996 -2.44951,-13.156996 -3.82563,-22.2077 -7.83033,-32.2656 -14.14779,-35.5325 -2.38446,-1.233 -2.85863,-1.1963 -4.12242,0.3196 -2.08344,2.499 -4.043,7.2875 -4.34379,10.6148 -0.14429,1.596 -0.95136,3.2874 -1.7935,3.7587 -1.1953303,0.669 -1.4232303,2.1161 -1.0390303,6.5982 0.7097303,8.2794 2.3944003,15.487 4.0691003,17.4087 2.06206,2.3663 1.28225,6.2626 -1.32794,6.6351 -1.6627,0.2372 -2.4721403,-0.5766 -3.7500003,-3.7703 -0.89628,-2.24 -1.62961,-6.006 -1.62961,-8.3689 0,-2.3628 -0.43898,-6.7412 -0.9755,-9.7297 -0.84635,-4.7143 -2.16071,-21.521 -2.14544,-27.4337 0.0168,-6.5055 -2.35045,-27.5 -3.10077996,-27.5 -0.49297,0 -0.6243,-0.4401 -0.29184,-0.9781 0.33246,-0.5379 0.60447,-5.2849 0.60447,-10.5488 0,-7.6456995 0.30608996,-9.68819952 1.52175996,-10.15469952 0.83697,-0.3212 1.91737,-0.1867 2.40088,0.2988 0.48352,0.4855 1.14036,9.65779952 1.45965,20.38279952 0.3193,10.725 0.95447,22.1711 1.41149,25.4357 0.45702,3.2646 0.61745,6.7521 0.3565,7.75 -0.74161,2.8359 1.39708,2.131 3.8082603,-1.2551 3.09388,-4.345 6.10587,-5.2524 10.97189,-3.3054 2.18826,0.8756 3.97866,1.961 3.97866,2.412 0,0.4509 0.57767,1.4146 1.28371,2.1414 1.82954,1.8833 6.71629,12.204 6.71629,14.1846 0,0.9152 0.45794,2.4453 1.01765,3.4004 0.5597,0.955 1.66699,5.7864 2.46064,10.7364 0.79366,4.95 1.91787,11.25 2.49826,14 1.91197,9.059296 2.32924,13.499996 1.26851,13.499996 z"
     style="fill:#000000" />
</svg>
