<?xml version="1.0" encoding="UTF-8" standalone="no"?>
<svg
   xmlns:dc="http://purl.org/dc/elements/1.1/"
   xmlns:cc="http://creativecommons.org/ns#"
   xmlns:rdf="http://www.w3.org/1999/02/22-rdf-syntax-ns#"
   xmlns:svg="http://www.w3.org/2000/svg"
   xmlns="http://www.w3.org/2000/svg"
   id="svg61"
   version="1.1"
   viewBox="0 0 60.976048 31.927917"
   height="31.927917mm"
   width="60.976048mm">
  <defs
     id="defs55" />
  <metadata
     id="metadata58">
    <rdf:RDF>
      <cc:Work
         rdf:about="">
        <dc:format>image/svg+xml</dc:format>
        <dc:type
           rdf:resource="http://purl.org/dc/dcmitype/StillImage" />
        <dc:title></dc:title>
      </cc:Work>
    </rdf:RDF>
  </metadata>
  <g
     transform="translate(82.447151,-174.9238)"
     id="layer1">
    <path
       id="path79"
       d="m -22.032382,204.39793 c -0.64661,1.07341 -1.43592,1.56863 -3.22343,2.02245 -1.71471,0.43532 -2.64052,0.52789 -3.37272,0.33724 -0.72576,-0.189 -0.72618,-0.19048 -0.12101,-0.42167 0.33403,-0.12758 1.10793,-0.28112 1.71979,-0.34118 2.50058,-0.24543 3.96717,-1.18891 4.31229,-2.77413 0.0834,-0.3832 0.20251,-0.85855 0.26465,-1.05632 0.19542,-0.62207 -1.50495,-1.85799 -2.803,-2.03737 -0.65485,-0.0905 -1.54782,-0.22567 -1.98438,-0.30039 -0.43656,-0.0747 -0.97234,-0.16134 -1.19062,-0.19248 -0.21828,-0.0312 -0.73205,-0.19735 -1.14171,-0.36936 -0.40965,-0.17198 -0.82637,-0.31697 -0.92604,-0.32221 -0.3366,-0.0177 -1.55326,-1.17769 -1.71657,-1.63666 -0.30631,-0.86085 0.37396,-2.01618 1.86403,-3.16576 0.81355,-0.62765 1.54867,-1.15147 1.63359,-1.16404 0.30133,-0.0446 1.21475,-0.47011 1.34503,-0.62661 0.0728,-0.0874 0.66807,-0.37619 1.32292,-0.64177 0.65484,-0.26557 1.36922,-0.56952 1.5875,-0.67543 0.53846,-0.26123 2.02621,0.15869 2.20404,0.62211 0.16772,0.43707 -0.52002,0.78875 -0.76555,0.39148 -0.54157,-0.87627 -6.48716,2.18599 -7.53451,3.88064 -0.47186,0.76348 -0.51235,0.99447 -0.2333,1.3307 0.42022,0.50633 1.7297,1.19565 2.46723,1.29876 1.61177,0.22532 4.17192,0.90461 5.07963,1.34776 1.78782,0.87283 2.28444,2.71418 1.21214,4.49424 z m -12.4177,-0.0305 c -0.25467,0.0992 -1.39237,0.22804 -2.52823,0.28635 -1.13586,0.0583 -2.19097,0.18376 -2.34469,0.27877 -0.15371,0.095 -0.35546,0.0594 -0.44833,-0.0792 -0.0929,-0.13856 -0.88323,-0.43662 -1.75636,-0.66233 -3.04679,-0.78764 -3.79452,-1.23733 -5.22552,-3.14262 -0.66279,-0.88246 -0.63636,-4.46714 0.044,-5.96535 0.47766,-1.05185 1.97808,-2.51094 2.7103,-2.63564 0.19502,-0.0332 0.87396,-0.18095 1.50876,-0.3283 0.63479,-0.14734 1.58729,-0.20021 2.11666,-0.11747 0.92217,0.14412 3.21146,1.53268 3.21146,1.94789 0,0.10969 0.29328,0.54798 0.65173,0.97398 l 0.65174,0.77454 -0.58559,0.283 c -0.53376,0.25794 -1.59979,0.48464 -3.36372,0.71533 -0.3638,0.0476 -0.72099,0.11094 -0.79375,0.14081 -0.0728,0.0298 -0.42994,0.037 -0.79375,0.0159 -0.3638,-0.0212 -1.23856,0.13674 -1.94392,0.35068 -0.70535,0.21392 -1.44949,0.32486 -1.65364,0.24652 -0.50667,-0.19445 -0.46819,-0.78574 0.0644,-0.99013 0.45039,-0.17282 3.03699,-0.6005 5.12063,-0.84661 1.0705,-0.12647 2.48237,-0.89493 1.6442,-0.89493 -0.1767,0 -0.32128,-0.16489 -0.32128,-0.36645 0,-0.6142 -1.30616,-1.26645 -2.74145,-1.36903 -1.61256,-0.11523 -3.45879,0.68591 -3.99947,1.73548 -0.82695,1.60528 -0.99395,2.11577 -0.85988,2.62845 0.0786,0.30059 0.0504,0.54655 -0.0627,0.54655 -0.37196,0 0.23431,2.40252 0.81044,3.21162 0.62949,0.88403 2.70831,1.93439 4.65454,2.35177 1.32232,0.28361 4.95125,0.23876 5.25492,-0.0649 0.20079,-0.20079 1.44155,0.31658 1.44155,0.60108 0,0.1066 -0.20836,0.27496 -0.46302,0.37412 z m -12.77048,-0.25329 c -0.14792,0.0914 -0.5944,0.21796 -0.99218,0.2812 -0.39778,0.0632 -1.22803,0.24873 -1.84498,0.41219 -1.22453,0.32444 -2.55142,0.16645 -3.08516,-0.36726 -0.41256,-0.41257 -1.07225,-1.55237 -1.10912,-1.91633 -0.0147,-0.14552 -0.0978,-0.44318 -0.18466,-0.66146 -0.36241,-0.91109 -0.57264,-4.2628 -0.40659,-6.48229 0.23834,-3.18574 0.17339,-3.36476 -1.19506,-3.29351 -1.561392,0.0813 -1.761213,0.0353 -1.761213,-0.4056 0,-0.44924 1.080023,-0.79174 1.856333,-0.58875 0.2887,0.0755 0.52492,0.0331 0.52492,-0.0942 0,-0.12734 0.17859,-0.16298 0.39687,-0.0792 0.30857,0.1184 0.40166,-0.0748 0.41837,-0.8682 0.0118,-0.56129 0.0455,-1.34792 0.0749,-1.7481 0.0294,-0.40018 -0.0526,-0.72761 -0.18209,-0.72761 -0.12951,0 -0.14992,-0.20836 -0.0453,-0.46302 0.10457,-0.25466 0.22713,-1.53458 0.27234,-2.84427 0.1655,-4.79377 0.4177,-8.11374 0.66597,-8.76673 0.39274,-1.03299 0.91517,-0.61113 0.89438,0.72223 -0.0254,1.62632 -0.37493,6.10376 -0.49164,6.29714 -0.0531,0.0879 -0.13865,2.00078 -0.1902,4.25077 l -0.0937,4.09091 0.99219,0.23487 c 1.33526,0.31604 1.32887,0.97602 -0.009,0.97602 -0.76708,0 -1.00807,0.10843 -1.02912,0.46302 -0.0293,0.4944 -0.0841,7.55798 -0.0647,8.33438 0.006,0.25466 0.13321,0.46302 0.28181,0.46302 0.14861,0 0.21652,0.14882 0.15093,0.33073 -0.18229,0.50548 0.66424,1.79334 1.26312,1.92166 1.20685,0.25858 1.6583,0.22773 4.43444,-0.30321 0.53573,-0.10244 0.72761,-0.0331 0.72761,0.26313 0,0.22127 -0.12103,0.4771 -0.26895,0.56851 z m -11.457197,-4.06352 c -0.773391,1.29516 -2.057829,2.73563 -2.627495,2.94666 -0.254662,0.0943 -0.463021,0.29432 -0.463021,0.4444 0,0.15009 -0.215368,0.27289 -0.478597,0.27289 -0.263229,0 -0.709713,0.17481 -0.992188,0.38846 -1.255543,0.94964 -3.806399,0.17838 -4.974481,-1.50405 -1.328224,-1.9131 -1.230805,-5.09815 0.253452,-8.28641 0.961927,-2.06626 2.64228,-3.40664 3.290914,-2.62509 0.253352,0.30528 0.155795,0.46569 -0.513373,0.84418 -0.454393,0.25702 -0.972693,0.7947 -1.151785,1.19489 -0.179091,0.40018 -0.401912,0.7276 -0.495159,0.7276 -0.21635,0 -0.980663,2.32722 -1.2661,3.85511 -0.120423,0.64458 -0.118994,1.17197 0.0032,1.17197 0.122166,0 0.151032,0.18526 0.06415,0.41167 -0.198668,0.51774 0.89626,2.68285 1.609331,3.1823 1.879732,1.31662 5.854306,-1.08445 7.062094,-4.26625 0.664586,-1.75077 0.251346,-3.06975 -1.488718,-4.75168 -1.440315,-1.39218 -3.3836,-2.85165 -4.163853,-3.12718 -0.254662,-0.0899 -0.463021,-0.32933 -0.463021,-0.53198 0,-0.67146 1.199692,-0.17325 3.136918,1.30268 1.032627,0.78674 1.973959,1.43044 2.091854,1.43044 0.117893,0 0.656524,0.67144 1.196957,1.49207 0.850508,1.29148 0.980138,1.69164 0.964266,2.97656 -0.0127,1.02844 -0.195591,1.78133 -0.595313,2.45076 z m -12.406477,0.35665 c -0.384064,4.86895 -0.583798,6.08542 -0.999164,6.08542 -0.577633,0 -0.636654,-0.76602 -0.275209,-3.57187 0.316404,-2.45624 0.448161,-8.07625 0.226406,-9.6573 -0.4075,-2.90536 -1.48381,-4.49905 -3.101573,-4.59253 -1.571537,-0.0908 -5.458767,2.20303 -5.140206,3.03321 0.07782,0.20278 0.02244,0.3687 -0.123094,0.3687 -0.145521,0 -0.355704,0.20836 -0.467069,0.46302 -0.296484,0.67797 -0.386088,10.8811 -0.09713,11.05969 0.133646,0.0826 0.242996,0.50826 0.242996,0.94589 0,0.71196 -0.07659,0.78689 -0.727604,0.71199 -0.704252,-0.081 -0.729282,-0.13891 -0.779836,-1.80351 -0.02873,-0.94588 -0.04085,-2.25557 -0.02694,-2.91041 0.02666,-1.25503 0.01217,-2.79075 -0.08429,-8.92858 -0.03258,-2.07309 0.0155,-3.84395 0.106852,-3.93531 0.09134,-0.0913 0.349805,-0.0956 0.574363,-0.009 0.284874,0.1093 0.408286,0.51906 0.408286,1.3556 0,1.33966 0.167458,1.44242 1.072139,0.65778 2.440046,-2.11622 5.339136,-2.72616 6.98627,-1.46984 0.88427,0.67445 1.834865,2.3649 2.172359,3.86307 0.262382,1.16475 0.278162,5.21925 0.03244,8.33438 z"
       style="fill:#000000;stroke-width:0.26458332" />
  </g>
</svg>
