<?xml version="1.0" encoding="UTF-8" standalone="no"?>
<svg
   xmlns:dc="http://purl.org/dc/elements/1.1/"
   xmlns:cc="http://creativecommons.org/ns#"
   xmlns:rdf="http://www.w3.org/1999/02/22-rdf-syntax-ns#"
   xmlns:svg="http://www.w3.org/2000/svg"
   xmlns="http://www.w3.org/2000/svg"
   id="svg222"
   version="1.1"
   viewBox="0 0 155.71196 83.572495"
   height="83.572495mm"
   width="155.71196mm">
  <defs
     id="defs216" />
  <metadata
     id="metadata219">
    <rdf:RDF>
      <cc:Work
         rdf:about="">
        <dc:format>image/svg+xml</dc:format>
        <dc:type
           rdf:resource="http://purl.org/dc/dcmitype/StillImage" />
        <dc:title></dc:title>
      </cc:Work>
    </rdf:RDF>
  </metadata>
  <g
     transform="translate(-9.2235382,-90.63516)"
     id="layer1">
    <path
       id="path14"
       d="m 42.570571,173.77056 c -0.218732,-0.27088 -0.429802,-0.81898 -0.469051,-1.21801 -0.03924,-0.39903 -0.170259,-1.47334 -0.291137,-2.38735 -0.120869,-0.91402 -0.275378,-2.22156 -0.343331,-2.90565 -0.107318,-1.08018 -0.406233,-3.40706 -0.833385,-6.48747 -0.171223,-1.23476 -0.493492,-7.44654 -0.499724,-9.63229 -0.0029,-1.0021 -0.08609,-2.75836 -0.18497,-3.9028 -0.227967,-2.6386 -0.325595,-5.23048 -0.30542,-8.1085 0.01693,-2.41497 -0.159292,-4.61612 -0.397826,-4.9691 -0.07997,-0.11834 -0.181071,-0.49551 -0.224675,-0.83816 -0.132155,-1.03852 -0.792079,-2.59268 -1.161849,-2.73619 -0.191438,-0.0743 -0.448249,-0.39742 -0.570695,-0.71804 -0.290363,-0.7603 -2.410842,-2.55086 -3.583908,-3.02629 -1.539471,-0.62394 -3.165718,-0.80027 -5.594089,-0.60657 -1.243956,0.0992 -2.592005,0.16096 -2.995663,0.13719 -0.403653,-0.0239 -1.126258,0.0664 -1.605779,0.2003 -0.479518,0.13395 -1.440288,0.29872 -2.135043,0.36617 -1.405638,0.13645 -2.245821,0.47718 -3.462845,1.40434 -0.451111,0.34366 -0.903322,0.56595 -1.004912,0.49397 -0.226053,-0.16019 -2.058188,0.68942 -2.620882,1.21536 -0.237776,0.22225 -0.567912,0.32991 -0.788497,0.25714 -0.462124,-0.15247 -0.767514,0.20288 -0.39886,0.4641 0.197493,0.13994 0.124782,0.23132 -0.285165,0.35831 -0.302638,0.0937 -0.62163,0.2712 -0.70887,0.39431 -0.106616,0.15046 -0.244626,0.083 -0.420973,-0.20588 -0.360147,-0.58991 0.03145,-1.2808 0.970858,-1.71288 0.399584,-0.18379 0.730997,-0.40527 0.736471,-0.4922 0.0054,-0.0869 0.605303,-0.41157 1.332952,-0.72149 0.72765,-0.30991 2.087172,-0.92178 3.021163,-1.35971 0.933989,-0.43795 1.860028,-0.79053 2.057864,-0.78353 0.197835,0.007 0.365516,-0.0796 0.372623,-0.19244 0.0071,-0.11286 0.156491,-0.19615 0.331962,-0.1851 0.175472,0.011 0.765013,-0.15028 1.310092,-0.35853 0.54508,-0.20826 1.876446,-0.45384 2.958594,-0.54576 1.082149,-0.0919 2.342239,-0.22897 2.800203,-0.30455 0.457964,-0.0756 1.739869,-0.0826 2.848676,-0.0155 1.630487,0.0988 2.310853,0.24194 3.557825,0.74946 1.388455,0.56512 2.810676,1.51046 2.970611,1.97455 0.03331,0.0967 0.555993,0.74843 1.161525,1.4484 1.114144,1.28792 1.711191,2.43017 1.754221,3.35612 0.01297,0.27924 0.114579,0.61094 0.225788,0.73709 0.111208,0.12616 0.144826,0.3547 0.07471,0.50787 -0.07012,0.15318 -0.04259,0.39854 0.06116,0.54527 0.373931,0.52875 0.541913,3.28147 0.482547,7.90732 -0.01741,1.35851 0.06092,3.10765 0.174168,3.88698 0.113216,0.77931 0.183842,1.76645 0.156932,2.19365 -0.02688,0.42719 0.01935,1.04978 0.102788,1.38352 0.08344,0.33374 0.130288,1.76421 0.10411,3.17882 -0.05222,2.82192 0.08431,5.73729 0.314471,6.71486 0.08123,0.34502 0.175738,1.18528 0.210006,1.86724 0.03427,0.68197 0.130116,1.39362 0.212997,1.58145 0.08287,0.18785 0.169412,0.6568 0.192311,1.04213 0.02292,0.38533 0.111942,1.12218 0.197868,1.63745 0.08593,0.51526 0.21975,1.6361 0.297392,2.49074 0.07763,0.85465 0.279979,2.25791 0.449632,3.11835 0.356254,1.80677 0.382961,3.15037 0.06426,3.23511 -0.121872,0.0324 -0.400538,-0.16271 -0.619269,-0.43359 z m -29.466902,-1.94571 c -0.0705,-0.08 -0.09864,-0.61477 -0.06253,-1.18844 0.0361,-0.57368 -0.05461,-2.16302 -0.201599,-3.5319 -0.307117,-2.86015 -0.415928,-4.443 -0.583146,-8.48279 -0.06583,-1.59036 -0.204738,-3.73122 -0.308683,-4.75748 -0.103947,-1.02625 -0.207974,-2.33062 -0.231172,-2.89858 -0.0232,-0.56796 -0.130426,-1.91888 -0.238282,-3.00203 -0.403097,-4.04811 -0.536636,-5.93147 -0.485399,-6.8458 0.02901,-0.51747 -0.0067,-1.00827 -0.07937,-1.09069 -0.07265,-0.0824 -0.134943,-0.31038 -0.138426,-0.50656 -0.0035,-0.19619 -0.07166,-0.96338 -0.151497,-1.70486 -0.07984,-0.74149 -0.203399,-2.09343 -0.274573,-3.00432 -0.135249,-1.7309 -0.480232,-4.56678 -0.615243,-5.05749 -0.05539,-0.20131 -0.157509,-0.22824 -0.345899,-0.0912 -0.210828,0.15334 -0.216935,-0.60542 -0.0289,-3.5909 0.191155,-3.03502 0.297964,-3.81719 0.538859,-3.94609 0.165246,-0.0884 0.412997,-0.10925 0.550558,-0.0463 0.392035,0.17946 0.661129,1.20866 0.495296,1.89437 -0.0829,0.3428 -0.08603,1.1242 -0.0069,1.73643 0.07909,0.61226 0.114437,2.18393 0.07855,3.49262 -0.03588,1.30869 0.03724,3.10254 0.1625,3.98636 0.12526,0.8838 0.157623,1.78758 0.07192,2.0084 -0.08571,0.22081 -0.07235,0.51817 0.02968,0.66078 0.173621,0.24269 0.314589,1.91468 0.254903,3.02336 -0.01455,0.2706 0.05699,0.60654 0.159018,0.74652 0.102028,0.13999 0.186684,0.94288 0.188124,1.78419 0.0015,0.84133 0.05924,2.04311 0.12842,2.67062 0.288953,2.62069 0.538616,5.34674 0.56928,6.2159 0.04285,1.21455 0.228098,3.71385 0.391189,5.27768 0.07136,0.6843 0.213512,2.82537 0.315886,4.75793 0.102374,1.93256 0.277118,4.26109 0.388318,5.17451 0.111203,0.9134 0.220054,1.93996 0.241893,2.28124 0.02184,0.34128 0.112328,1.24199 0.201082,2.00159 0.120008,1.02705 0.09546,1.48756 -0.09578,1.79648 -0.254369,0.41091 -0.669918,0.51793 -0.918052,0.23643 z"
       style="fill:#000000;stroke-width:0.20559423" />
    <path
       id="path22-5"
       d="m 61.684379,172.60466 c -0.0916,-0.0916 -0.52576,-0.21367 -0.9647,-0.27118 -0.43895,-0.0575 -1.09136,-0.29527 -1.44983,-0.52835 -0.35844,-0.23308 -0.8713,-0.42379 -1.13967,-0.42379 -0.87643,0 -4.13365,-2.56357 -4.65609,-3.66456 -0.27238,-0.57397 -0.59334,-1.0436 -0.71329,-1.0436 -0.28365,0 -2.72748,-3.71517 -2.64947,-4.02785 0.10899,-0.43685 -0.60143,-2.50822 -1.02741,-2.99563 -0.23081,-0.26409 -0.50715,-0.94362 -0.61408,-1.51007 -0.26731,-1.41613 -0.70084,-4.26649 -0.91542,-6.01895 -0.0982,-0.80185 -0.23218,-1.54469 -0.29771,-1.65074 -0.0655,-0.10599 -0.18809,-2.54955 -0.27234,-5.43001 -0.14433,-4.93489 0.0446,-6.95464 0.74272,-7.9399 0.11467,-0.16185 0.37859,-1.26023 0.58647,-2.44087 0.20792,-1.18063 0.48814,-2.21468 0.62275,-2.29788 0.13462,-0.0832 0.24479,-0.34745 0.24479,-0.58722 0,-0.57908 1.20721,-2.19376 1.50333,-2.01074 0.12797,0.0791 0.37643,-0.12473 0.5521,-0.45295 0.17564,-0.32821 0.5842,-0.59675 0.90787,-0.59675 0.32367,0 0.94246,-0.23174 1.37508,-0.51496 0.96938,-0.63467 5.70176,-0.74449 6.30005,-0.14622 0.20181,0.20181 0.63837,0.36725 0.97014,0.36766 0.88608,0.001 3.98588,1.93785 5.09798,3.1852 1.41789,1.59032 2.96114,4.02768 3.63888,5.74707 0.32771,0.83146 0.70005,1.6445 0.82734,1.80674 0.12732,0.16226 0.31992,0.78597 0.42801,1.38605 0.1081,0.60008 0.38933,1.46078 0.62506,1.91269 0.23571,0.4519 0.42938,1.11177 0.43038,1.46636 0,0.3546 0.11959,0.71752 0.26358,0.80649 0.26798,0.16564 0.37911,0.66151 0.89472,3.99261 1.04763,6.76816 1.02311,10.45924 -0.0899,13.53597 -0.4391,1.21382 -0.93565,2.76978 -1.10348,3.45769 -0.39632,1.62448 -4.80463,6.2529 -5.95555,6.2529 -0.39961,0 -0.77068,0.12938 -0.82462,0.28751 -0.10643,0.3121 -3.06508,0.61993 -3.33774,0.34728 z m 3.88406,-2.46298 c 2.06729,-1.0441 3.32811,-2.02716 3.32811,-2.59496 0,-0.16692 0.20242,-0.38117 0.44984,-0.47612 0.47982,-0.18411 1.43068,-2.05642 1.77618,-3.49737 0.11504,-0.47991 0.31041,-1.00498 0.43412,-1.16682 0.22687,-0.29683 0.97683,-2.69144 1.01372,-3.23687 0.0111,-0.16184 0.10165,-0.42667 0.20149,-0.58851 0.38801,-0.62891 -0.47241,-8.84868 -1.24746,-11.91754 -0.82137,-3.25219 -3.093,-9.40645 -3.99376,-10.81979 -0.54353,-0.85282 -0.98822,-1.63791 -0.98822,-1.74466 0,-0.34299 -2.16007,-2.20483 -3.73798,-3.22191 -1.73797,-1.12023 -4.46267,-1.85851 -6.88267,-1.86491 -1.5923,-0.004 -1.68157,0.0386 -2.75233,1.31983 -0.60864,0.72829 -1.27847,1.32416 -1.4885,1.32416 -0.59683,0 -1.62637,1.99546 -1.96202,3.80265 -0.16764,0.90264 -0.5193,2.10463 -0.78151,2.67107 -0.389,0.84031 -0.4866,2.24882 -0.53009,7.65078 -0.0323,4.00845 0.0614,6.76041 0.23737,6.97456 0.1599,0.19454 0.20263,0.63124 0.095,0.97046 -0.10911,0.34373 -0.0361,0.80905 0.16473,1.05114 0.1983,0.23891 0.2772,0.5177 0.17535,0.61954 -0.10188,0.10187 0.0971,0.64177 0.44195,1.19986 0.51416,0.83192 0.55415,1.05981 0.22196,1.26511 -0.32139,0.19864 -0.23705,0.42585 0.40805,1.0992 0.53553,0.55897 0.74725,1.02068 0.62001,1.35223 -0.12115,0.31571 0.003,0.64689 0.33292,0.88814 0.32775,0.23965 0.45384,0.57304 0.33443,0.8842 -0.13704,0.35717 0.0592,0.64181 0.6886,0.9989 0.48414,0.27467 0.96234,0.75406 1.06266,1.06532 0.21004,0.65181 0.39996,0.90562 2.07456,2.77257 1.29063,1.43886 4.11592,3.08011 6.12798,3.55983 1.44935,0.34556 3.08107,0.21266 4.17552,-0.34009 z"
       style="fill:#000000;stroke-width:0.29426026" />
    <path
       id="path12"
       d="m 118.09614,170.06194 c -0.0537,-0.11235 -0.50802,-0.14281 -1.07038,-0.072 -0.53729,0.0676 -1.4038,0.0196 -1.92558,-0.10693 -0.52179,-0.12646 -1.31853,-0.30901 -1.77054,-0.4056 -0.45201,-0.0966 -0.98371,-0.32183 -1.18153,-0.50047 -0.19783,-0.17865 -0.45762,-0.32483 -0.57732,-0.32483 -0.46803,0 -3.79794,-2.09397 -4.41233,-2.77461 -0.24093,-0.26693 -0.64421,-0.61404 -0.89615,-0.77136 -0.69459,-0.43372 -2.6575,-2.65762 -3.25843,-3.69167 -0.29302,-0.50422 -0.59829,-0.91674 -0.6784,-0.91674 -0.0801,0 -0.10557,-0.13468 -0.0566,-0.29927 0.049,-0.16458 0.021,-0.35346 -0.0622,-0.41973 -0.0832,-0.0663 -0.43959,-0.88866 -0.79206,-1.8275 -0.35246,-0.93889 -0.78637,-1.94554 -0.96421,-2.23706 -0.519093,-0.8508 -0.917023,-2.51397 -1.097923,-4.58888 -0.0926,-1.06235 -0.2107,-2.01971 -0.26236,-2.12748 -0.13995,-0.29194 -0.22019,-4.03796 -0.0942,-4.39688 0.0599,-0.17052 0.11851,-0.86047 0.13033,-1.5332 0.0271,-1.54067 0.38981,-3.35081 0.7697,-3.84095 0.166753,-0.21515 0.257283,-0.54368 0.211733,-0.76832 -0.0437,-0.21586 0.0173,-0.51753 0.13596,-0.6704 0.11856,-0.15287 0.17325,-0.3325 0.12152,-0.39921 -0.0518,-0.0667 -0.006,-0.25707 0.10021,-0.42306 0.10684,-0.16598 0.14611,-0.40224 0.0872,-0.52502 -0.0589,-0.12279 0.073,-0.43826 0.29286,-0.70105 0.21994,-0.26279 0.36023,-0.52893 0.31176,-0.59142 -0.0484,-0.0625 0.0271,-0.26214 0.16789,-0.44368 0.14079,-0.18152 0.25599,-0.44085 0.25599,-0.57627 0,-0.13543 0.14229,-0.37847 0.31622,-0.5401 0.17393,-0.16162 0.31624,-0.35956 0.31624,-0.43986 0,-0.17813 1.61185,-2.21031 1.75315,-2.21031 0.0554,0 0.36937,-0.27521 0.69766,-0.61158 0.32829,-0.33637 0.7388,-0.61158 0.91224,-0.61158 0.32164,0 1.41669,-0.76872 1.51221,-1.06158 0.0289,-0.0889 0.18574,-0.16158 0.34832,-0.16158 0.1626,0 0.45905,-0.0844 0.65882,-0.18746 1.94769,-1.00529 4.88031,-1.38876 7.39939,-0.96757 0.39135,0.0654 0.81827,0.13026 0.9487,0.14407 0.13045,0.0138 0.84198,0.25846 1.58118,0.54369 2.26946,0.87571 3.29307,1.67043 5.52382,4.28866 0.31002,0.36387 0.60233,0.66201 0.64958,0.66255 0.0473,5.3e-4 0.29629,0.46317 0.5534,1.02807 0.31897,0.70075 0.59759,1.06303 0.87691,1.14016 0.22518,0.0621 0.52525,0.35682 0.66686,0.65474 0.1416,0.29793 0.47638,0.85692 0.74397,1.24221 0.43469,0.62595 0.48152,0.81753 0.43994,1.79952 l -0.0466,1.099 -1.10682,0.0806 c -0.60873,0.0443 -1.71162,0.12476 -2.4508,0.17883 -1.23547,0.0903 -1.97545,0.18422 -3.2414,0.41134 -0.2609,0.0468 -0.47436,0.095 -0.47436,0.1072 0,0.0118 -0.39133,0.0601 -0.86963,0.10654 -1.75741,0.17045 -3.08158,0.34475 -3.17308,0.41765 -0.0517,0.0411 -1.26061,0.22413 -2.68655,0.40659 -1.42594,0.18244 -2.6558,0.38208 -2.73306,0.44363 -0.0772,0.0616 -0.89706,0.14207 -1.82182,0.17893 -0.92478,0.0368 -1.95779,0.11768 -2.29558,0.17946 -0.36976,0.0677 -0.7049,0.0153 -0.84216,-0.13153 -0.17936,-0.19193 -0.25793,-0.18154 -0.36829,0.0488 -0.10471,0.2184 -0.49289,0.29268 -1.5296,0.29268 -0.76411,0 -1.44086,0.0917 -1.50391,0.20385 -0.13936,0.24789 -0.88398,-0.24885 -1.12806,-0.75253 -0.12809,-0.26439 -0.0948,-0.4485 0.14251,-0.78924 0.28763,-0.41289 0.39933,-0.43408 1.57452,-0.29883 0.69571,0.0801 1.43544,0.137 1.64386,0.12646 0.20839,-0.0104 0.4678,0.076 0.57642,0.19229 0.1365,0.14605 0.5274,0.14341 1.26508,-0.009 0.58714,-0.12096 1.39503,-0.21281 1.7953,-0.20416 1.07049,0.0232 3.30709,-0.15451 3.45783,-0.27462 0.18754,-0.14946 1.46286,-0.3172 3.23112,-0.425 0.84365,-0.0515 2.07501,-0.23762 2.73634,-0.41374 0.66135,-0.17613 1.71433,-0.36343 2.33995,-0.41626 0.62563,-0.0528 1.42213,-0.13844 1.76998,-0.19029 0.34786,-0.0519 1.34018,-0.18991 2.20517,-0.30682 0.86498,-0.1169 1.63592,-0.2941 1.7132,-0.39375 0.14658,-0.18898 -0.23214,-1.32463 -0.51757,-1.55207 -0.0875,-0.0697 -0.6461,-0.87824 -1.24132,-1.7967 -1.37259,-2.11795 -2.46126,-3.51182 -3.26629,-4.18199 -0.92085,-0.76658 -2.57621,-1.84516 -2.66203,-1.73451 -0.0405,0.0523 -0.45439,-0.0547 -0.91953,-0.23759 -1.05745,-0.41608 -4.33003,-0.90016 -4.59875,-0.68024 -0.10993,0.09 -0.50643,0.16498 -0.88112,0.1667 -0.93195,0.004 -2.91494,0.41087 -3.13645,0.6431 -0.0995,0.10444 -0.27743,0.16362 -0.39529,0.13165 -0.11786,-0.032 -0.19833,0.0494 -0.17883,0.18095 0.0318,0.21456 -1.18591,0.67831 -1.78119,0.67831 -0.12542,0 -0.3169,0.18346 -0.42554,0.40771 -0.10861,0.22425 -0.27815,0.40772 -0.37675,0.40772 -0.0986,0 -0.45114,0.32108 -0.78344,0.71352 -0.33229,0.39243 -0.66441,0.7135 -0.73801,0.7135 -0.22509,0 -0.66954,0.67183 -0.99618,1.50577 -0.17067,0.43575 -0.42275,0.83226 -0.5602,0.88114 -0.21818,0.0776 -0.93598,2.5744 -0.93598,3.25577 0,0.122 -0.14232,0.26968 -0.31623,0.32832 -0.2137,0.0721 -0.31624,0.27807 -0.31624,0.63535 0,0.29081 -0.0784,0.52874 -0.17403,0.52874 -0.10918,0 -0.15301,0.34094 -0.11762,0.91464 0.0334,0.54195 -0.0145,0.94969 -0.11753,1.0007 -0.300853,0.14884 -0.541853,2.39279 -0.462073,4.30238 0.18716,4.47999 0.239573,5.22714 0.392563,5.59569 0.0894,0.21525 0.16245,0.60635 0.16245,0.86905 0,0.26274 0.11078,0.6816 0.24614,0.93078 0.13538,0.24919 0.20509,0.45309 0.15492,0.45309 -0.17292,0 0.59109,1.73497 1.20115,2.72774 0.46967,0.7643 0.61143,1.17647 0.61143,1.77769 0,0.6994 0.0672,0.83221 0.63125,1.2475 0.34912,0.25704 0.6318,0.62108 0.63247,0.81451 6.9e-4,0.35178 0.83031,1.58695 1.06521,1.58695 0.0693,0 0.19618,0.19546 0.28203,0.43441 0.0859,0.23894 0.47626,0.6618 0.86761,0.93974 0.39133,0.2779 1.26067,0.99977 1.93184,1.60416 0.67119,0.60438 1.2713,1.09886 1.33361,1.09886 0.11007,0 1.29585,0.66662 1.81434,1.01996 0.14148,0.0965 0.53283,0.2374 0.86964,0.31328 0.33682,0.0758 0.88813,0.37782 1.22514,0.67096 0.66883,0.58174 1.62325,0.78232 4.44699,0.93453 3.59808,0.19396 3.67964,0.18806 6.95715,-0.50327 0.60875,-0.12843 1.24911,-0.31131 1.42304,-0.40645 0.17393,-0.0951 0.65422,-0.22365 1.0673,-0.28554 1.86013,-0.27881 2.26611,-0.37377 2.45801,-0.57485 0.11269,-0.11807 0.4632,-0.20216 0.77893,-0.18686 0.31574,0.0154 0.66997,-0.0749 0.7872,-0.20023 0.11723,-0.1254 0.25822,-0.16989 0.31333,-0.0987 0.055,0.071 0.19588,0.0269 0.31281,-0.0984 0.11772,-0.12593 0.42448,-0.17284 0.6874,-0.10509 0.26114,0.0673 0.64706,0.0213 0.8576,-0.10251 0.47051,-0.2764 1.12737,-0.0884 1.26112,0.361 0.0813,0.27337 0.02,0.31365 -0.33832,0.22267 -0.24071,-0.061 -0.72226,0.0174 -1.07012,0.17459 -0.34786,0.1571 -0.96625,0.28704 -1.37419,0.28872 -0.40795,8e-4 -0.77978,0.0825 -0.82628,0.17946 -0.0465,0.097 -0.35309,0.24332 -0.68133,0.32518 -0.32822,0.0817 -0.95253,0.23827 -1.38735,0.34764 -0.43483,0.10929 -1.00405,0.22787 -1.26494,0.26341 -0.26088,0.0354 -0.59992,0.13113 -0.75341,0.21247 -0.15348,0.0814 -0.42048,0.10036 -0.59333,0.0418 -0.1827,-0.0615 -0.36805,0.0181 -0.44284,0.19035 -0.0737,0.17003 -0.45,0.33513 -0.88271,0.38744 -0.41475,0.0501 -0.80431,0.13113 -0.86565,0.18003 -0.0614,0.0489 -0.67789,0.15106 -1.37008,0.22707 -0.69219,0.0759 -1.30891,0.17725 -1.37049,0.22498 -0.24546,0.19025 -3.12833,0.2405 -3.21674,0.0562 z"
       style="fill:#000000;stroke-width:0.17953719" />
    <path
       id="path12-7"
       d="m 85.655412,169.97856 c -1.117109,-2.31215 -1.727083,-7.25577 -2.122338,-17.20093 -0.158442,-3.98412 -0.360954,-8.01242 -0.450243,-8.95175 -0.08938,-0.93934 -0.313209,-4.82999 -0.497598,-8.64592 -0.203819,-4.21794 -0.539867,-7.07783 -0.857138,-7.29462 -0.287049,-0.19611 -0.942506,-0.24052 -1.456584,-0.0987 -0.514078,0.14183 -3.353219,0.43777 -6.309185,0.65761 -5.751938,0.42777 -6.825383,0.11322 -5.19446,-1.52237 0.712138,-0.71417 1.829336,-0.88356 6.877967,-1.04287 3.315242,-0.10456 6.146292,-0.1941 6.291203,-0.19885 0.145018,-0.005 0.198238,-1.21793 0.118522,-2.69591 -0.16215,-3.00327 -1.036281,-17.5167 -1.315982,-21.84844 -0.09962,-1.542248 -0.476261,-4.329811 -0.837055,-6.194599 -0.702742,-3.632089 -0.396351,-4.581643 1.368602,-4.241744 1.055941,0.203359 1.827305,3.021357 1.075106,3.927688 -0.299379,0.360741 -0.411984,1.177995 -0.250787,1.820257 0.160915,0.641079 0.518053,4.902498 0.793674,9.469828 0.275621,4.56734 0.570548,8.83002 0.655386,9.47263 0.08478,0.6426 0.171866,3.3364 0.193221,5.98625 0.02879,3.55744 0.182287,4.72929 0.586869,4.47924 0.616738,-0.38117 18.139608,-0.34597 18.522778,0.0373 0.62801,0.62801 -0.88973,0.8674 -8.188014,1.2915 -4.31473,0.25072 -8.160407,0.57098 -8.545965,0.71168 -0.385559,0.14078 -1.005741,0.27614 -1.378194,0.30099 -0.545748,0.0364 -0.664306,0.90861 -0.610838,4.49409 0.03656,2.44692 0.16586,4.76025 0.287455,5.14079 0.121525,0.38055 0.208182,1.00737 0.192373,1.39291 -0.09485,2.31136 1.171213,22.75069 1.57765,25.47039 0.268873,1.79928 0.89167,3.97107 1.383987,4.82616 0.492317,0.85515 0.775127,1.74894 0.628449,1.98624 -0.592045,0.95795 -1.643146,0.32503 -2.538808,-1.52879 z"
       style="fill:#000000;stroke-width:0.46734637" />
    <path
       id="path16"
       d="m 147.13902,171.09101 c -0.0511,-0.059 -1.58563,-0.15236 -3.41014,-0.20745 -3.74659,-0.11319 -4.83786,-0.37475 -5.01505,-1.2021 -0.0631,-0.29444 -0.0644,-0.6307 -0.003,-0.74726 0.16798,-0.31854 0.65807,-0.25475 0.65807,0.0856 0,0.67225 1.0405,0.85571 5.78157,1.01961 2.60644,0.0901 5.1655,0.13839 5.68679,0.10726 2.06342,-0.12297 3.85279,-0.34864 5.11811,-0.64541 0.72981,-0.17119 1.75343,-0.40997 2.27471,-0.5306 0.5213,-0.12064 1.37432,-0.44659 1.89561,-0.72434 0.52129,-0.27776 1.01488,-0.50924 1.09688,-0.51438 0.082,-0.005 0.20996,-0.1093 0.28435,-0.23149 0.0744,-0.12217 0.30585,-0.33044 0.51436,-0.46282 0.57342,-0.36401 1.79602,-3.34843 1.92965,-4.71033 0.1518,-1.54731 -0.5998,-3.81424 -1.76362,-5.31923 -0.45036,-0.5824 -0.86476,-1.20882 -0.9209,-1.39209 -0.14687,-0.47946 -3.64993,-3.15777 -4.50911,-3.44749 -0.23255,-0.0785 -0.78441,-0.33445 -1.22637,-0.56895 -0.44195,-0.23448 -1.00144,-0.42634 -1.24329,-0.42634 -0.24187,0 -0.60532,-0.14677 -0.80769,-0.32615 -0.20239,-0.17938 -0.54948,-0.32933 -0.77134,-0.33322 -0.22184,-0.004 -0.73365,-0.1775 -1.13735,-0.38584 -0.40369,-0.2083 -0.86194,-0.4 -1.01834,-0.42592 -0.15638,-0.026 -0.54023,-0.15174 -0.85301,-0.27956 -0.62404,-0.25502 -4.2674,-1.42482 -6.06592,-1.94759 -0.62554,-0.18184 -1.64917,-0.40725 -2.27471,-0.50091 -0.62554,-0.0937 -1.35062,-0.27242 -1.61126,-0.39722 -0.26064,-0.1248 -0.57066,-0.18678 -0.68892,-0.13776 -0.11827,0.0489 -0.61937,-0.17545 -1.1136,-0.49879 -0.49423,-0.32333 -1.10812,-0.61485 -1.36422,-0.64779 -0.25611,-0.0329 -0.85232,-0.4976 -1.32494,-1.03258 -0.89971,-1.0184 -1.38467,-2.04295 -1.38467,-2.92532 0,-0.66957 0.97798,-2.79255 1.60382,-3.48153 0.26474,-0.29148 0.48134,-0.63756 0.48134,-0.76906 0,-0.4469 3.22292,-3.79303 3.65336,-3.79303 0.12132,0 0.42594,-0.22303 0.67695,-0.49564 0.25101,-0.27262 0.51955,-0.4499 0.59675,-0.39398 0.0772,0.0559 0.27449,-0.0709 0.4384,-0.28185 0.1639,-0.21093 0.70843,-0.6334 1.21007,-0.93884 0.50164,-0.30545 0.95472,-0.61388 1.00685,-0.68539 0.17107,-0.23468 2.35114,-1.35674 3.22251,-1.65858 0.46917,-0.16251 1.72212,-0.65079 2.78433,-1.08506 1.06222,-0.43425 2.4697,-0.89046 3.12774,-1.01378 0.65804,-0.12333 1.62294,-0.31776 2.14422,-0.43207 1.31517,-0.28841 2.83154,-0.28175 3.38709,0.0148 0.428,0.22852 0.6793,0.76797 0.68586,1.47236 0.004,0.36793 -0.78225,0.35522 -1.21983,-0.0196 -0.389,-0.33334 -1.83502,-0.30699 -3.98138,0.0727 -0.7348,0.12994 -1.66087,0.25008 -2.05791,0.26701 -0.41163,0.0175 -0.81901,0.18216 -0.94781,0.38303 -0.37844,0.59018 -2.17519,1.35191 -3.18886,1.35191 -0.2501,0 -0.77302,0.19991 -1.16207,0.44424 -0.38904,0.24437 -0.80396,0.44429 -0.92205,0.44429 -0.11807,0 -0.82212,0.48373 -1.56454,1.07492 -0.74244,0.5912 -1.57157,1.13912 -1.84253,1.21759 -0.86088,0.2493 -3.01671,2.42893 -5.12941,5.18607 -0.74906,0.97753 -1.21498,2.44976 -1.12828,3.56514 0.0471,0.6056 1.30136,1.92202 2.37913,2.49699 0.63178,0.33704 1.91642,0.78257 2.85474,0.99004 0.93832,0.2075 1.87663,0.46155 2.08515,0.56454 0.68618,0.33901 3.03702,1.12094 3.37004,1.12094 0.1795,0 0.32637,0.0786 0.32637,0.17486 0,0.0963 0.19193,0.20139 0.42652,0.23385 0.66682,0.0923 0.97238,0.16715 1.27953,0.31371 0.15638,0.0747 0.79615,0.30194 1.4217,0.5051 0.62554,0.2032 1.22265,0.44841 1.32691,0.54491 0.10426,0.0965 0.48687,0.25012 0.85024,0.34135 0.36337,0.0911 0.85652,0.31623 1.09588,0.50004 0.23937,0.18378 0.4896,0.2704 0.55608,0.19249 0.0665,-0.0779 0.25574,0 0.4206,0.17224 0.16484,0.17262 0.55562,0.3602 0.8684,0.41684 0.90391,0.16372 4.83565,2.48204 6.01307,3.54557 2.72217,2.45885 4.10843,5.55748 3.89304,8.7019 -0.0533,0.77955 -0.22205,1.7023 -0.37479,2.05051 -0.94601,2.15679 -1.24686,2.65081 -2.08985,3.43166 -0.51516,0.47722 -1.01466,0.81115 -1.11002,0.7421 -0.0953,-0.0691 -0.40735,0.0632 -0.69334,0.29387 -0.286,0.23066 -1.24507,0.59297 -2.13126,0.8051 -0.88619,0.21212 -1.8961,0.4892 -2.24422,0.61579 -0.34815,0.12655 -1.45707,0.27755 -2.46429,0.33557 -4.23593,0.24391 -6.57989,0.32161 -6.66701,0.22096 z"
       style="fill:#000000;stroke-width:0.2052041" />
  </g>
</svg>
