<?xml version="1.0" encoding="UTF-8" standalone="no"?>
<svg
   xmlns:dc="http://purl.org/dc/elements/1.1/"
   xmlns:cc="http://creativecommons.org/ns#"
   xmlns:rdf="http://www.w3.org/1999/02/22-rdf-syntax-ns#"
   xmlns:svg="http://www.w3.org/2000/svg"
   xmlns="http://www.w3.org/2000/svg"
   id="svg4580"
   version="1.1"
   viewBox="0 0 155.51285 102.07113"
   height="102.07113mm"
   width="155.51285mm">
  <defs
     id="defs4574" />
  <metadata
     id="metadata4577">
    <rdf:RDF>
      <cc:Work
         rdf:about="">
        <dc:format>image/svg+xml</dc:format>
        <dc:type
           rdf:resource="http://purl.org/dc/dcmitype/StillImage" />
        <dc:title></dc:title>
      </cc:Work>
    </rdf:RDF>
  </metadata>
  <g
     transform="translate(-19.077885,-60.798932)"
     id="layer1">
    <path
       id="path3725"
       d="m 23.077376,161.82395 c -0.59513,-0.57762 -0.667587,-0.87736 -0.660624,-2.73298 0.0075,-1.99589 0.03987,-2.11054 0.763997,-2.70534 0.685044,-0.5627 0.969614,-0.60859 3.025117,-0.48792 2.862864,0.16801 8.70264,0.24618 9.475981,0.12672 0.32207,-0.0498 0.655352,0.0393 0.740632,0.19777 0.107657,0.20013 0.267097,0.20607 0.521601,0.0194 0.253517,-0.18589 0.41419,-0.18021 0.521061,0.0184 0.204025,0.37925 2.11979,0.48394 2.834622,0.15489 0.310033,-0.1427 2.202485,-0.20475 4.205448,-0.13786 2.002965,0.0668 4.165381,0.0412 4.805371,-0.0571 0.650165,-0.0998 2.032327,-0.0373 3.132325,0.14173 1.082787,0.17619 2.156415,0.23977 2.38583,0.14135 0.229423,-0.0985 0.946526,-0.12247 1.593564,-0.0533 0.647045,0.0691 1.598096,0.056 2.113464,-0.0292 0.515365,-0.0853 2.247638,-0.1311 3.849496,-0.10184 8.233926,0.15044 9.778872,0.15952 12.708086,0.0746 1.74676,-0.0506 3.254389,-0.13422 3.350286,-0.18581 0.09586,-0.0515 2.055518,-0.0421 4.354699,0.021 2.299194,0.0631 5.686008,0.079 7.526248,0.0352 4.437361,-0.10557 7.192521,-0.12563 9.441635,-0.0687 1.018935,0.0258 2.066415,-0.033 2.327745,-0.13075 0.26131,-0.0977 0.73865,-0.10161 1.06077,-0.009 0.32208,0.0929 1.60167,0.1325 2.8435,0.088 1.24183,-0.0445 3.67932,-0.0657 5.41666,-0.047 1.7373,0.0186 3.58987,-0.044 4.11681,-0.1394 0.52692,-0.0953 1.40758,-0.12115 1.957,-0.0573 0.54943,0.0639 1.06729,0.0191 1.1508,-0.0996 0.0836,-0.11858 0.26491,-0.13597 0.40313,-0.0387 0.36713,0.25857 4.69604,0.61584 4.84798,0.40012 0.071,-0.10075 0.39617,-0.11573 0.72271,-0.0333 0.32655,0.0824 1.13673,0.0454 1.80044,-0.0825 0.66371,-0.12781 2.21931,-0.21103 3.4569,-0.18493 5.3911,0.11368 8.27414,0.0925 8.56321,-0.0631 0.48356,-0.26014 2.85011,-0.19855 2.83375,0.0737 -0.0197,0.32864 1.12632,0.30807 1.38312,-0.0248 0.11266,-0.14601 0.41827,-0.26959 0.67915,-0.27463 0.2609,-0.005 1.84637,-0.0147 3.52329,-0.0215 5.14629,-0.0208 5.88566,-0.033 8.35767,-0.13747 1.31539,-0.0556 2.65672,-0.0206 2.9807,0.0777 0.32399,0.0983 0.74342,0.0657 0.93207,-0.0725 0.18866,-0.13818 0.91794,-0.2079 1.62067,-0.15492 0.7474,0.0563 1.36931,-0.0338 1.49844,-0.2171 0.14872,-0.21114 0.53054,-0.23581 1.17007,-0.0756 0.75331,0.18871 0.98968,0.14902 1.14471,-0.19225 0.12585,-0.27701 0.34387,-0.35673 0.61266,-0.22401 0.22948,0.11337 0.85764,0.32082 1.3959,0.4611 0.7475,0.19483 0.98377,0.16987 1.00032,-0.10563 0.0151,-0.25202 0.39993,-0.34273 1.27714,-0.30106 0.69051,0.0325 1.81314,0.002 2.49476,-0.069 1.15654,-0.12001 1.30808,-0.0641 2.26899,0.83677 0.81501,0.76409 1.01905,1.14253 0.97864,1.81498 -0.053,0.88241 -1.44844,3.06109 -1.80139,2.81253 -0.10978,-0.0773 -0.50507,0.0344 -0.87844,0.24813 -0.37336,0.21378 -0.95153,0.35092 -1.28483,0.30473 -0.7036,-0.0975 -1.81247,0.1439 -1.82773,0.39785 -0.006,0.0958 -0.51483,0.13174 -1.13128,0.0797 -1.76413,-0.14888 -5.06036,0.13766 -5.6367,0.49006 -0.38137,0.23319 -0.65903,0.23746 -1.0196,0.0157 -0.27254,-0.16761 -0.80807,-0.24599 -1.1901,-0.17414 -0.382,0.0718 -1.85896,0.0607 -3.28211,-0.0249 -1.42316,-0.0855 -2.66563,-0.0446 -2.76108,0.0909 -0.0954,0.13552 -0.97967,0.17751 -1.96497,0.0933 -0.98528,-0.0842 -1.92001,-0.0839 -2.0772,6.6e-4 -0.15718,0.0845 -1.09491,0.16722 -2.08386,0.18368 -0.98893,0.0164 -2.94404,0.13158 -4.34469,0.2558 -1.40062,0.12423 -3.19399,0.13202 -3.98522,0.0173 -0.79126,-0.11467 -2.10237,-0.13033 -2.9136,-0.0343 -1.35518,0.16008 -4.10194,0.15612 -10.95053,-0.0158 -1.42531,-0.0357 -2.67022,0.005 -2.76647,0.0901 -0.0962,0.0853 -0.64608,0.12684 -1.22188,0.0922 -0.5758,-0.0346 -2.24851,0.0548 -3.71714,0.19867 -1.4686,0.14387 -3.03571,0.18167 -3.48246,0.084 -0.44674,-0.0977 -1.37338,-0.0865 -2.05915,0.0243 -0.84627,0.13701 -1.67096,0.0912 -2.56676,-0.1425 -0.72592,-0.18941 -1.26351,-0.23967 -1.19467,-0.11176 0.10641,0.19779 -1.11012,0.25872 -2.88276,0.1444 -0.25414,-0.0163 -0.46901,0.0857 -0.47749,0.22688 -0.009,0.15408 -0.6187,0.15923 -1.52487,0.0129 -0.8302,-0.13414 -2.40758,-0.18474 -3.50529,-0.11254 -1.097715,0.0722 -3.663367,0.0922 -5.701456,0.0443 -4.142495,-0.0973 -4.940389,-0.0785 -5.319957,0.12537 -0.144267,0.0775 -1.811864,0.12324 -3.705743,0.10172 -1.893888,-0.0215 -3.803532,-0.001 -4.243659,0.0447 -0.440116,0.0461 -2.407885,0.041 -4.372817,-0.0113 -1.964934,-0.0522 -4.170165,-0.0756 -4.900508,-0.0518 -1.596755,0.052 -7.49368,0.0248 -10.069511,-0.0464 -1.018791,-0.0282 -2.926451,-0.0411 -4.239248,-0.0286 -1.312799,0.0125 -3.72571,-0.007 -5.36203,-0.0439 -1.636325,-0.0365 -3.093651,-0.003 -3.238514,0.0752 -0.144863,0.078 -1.847731,0.1096 -3.784152,0.0704 -5.592885,-0.11327 -7.063076,-0.10213 -7.356542,0.0557 -0.151076,0.0813 -0.723436,0.11789 -1.271913,0.0814 -0.548453,-0.037 -2.189408,-0.0763 -3.646509,-0.0885 -1.457098,-0.0122 -4.099621,-0.0836 -5.87227,-0.15872 -3.023084,-0.12815 -3.264455,-0.17682 -3.891437,-0.78536 z m 117.237144,-4.72204 c -0.0717,-0.21575 -0.13799,-0.15693 -0.16914,0.14997 -0.0281,0.27774 0.0248,0.43747 0.11789,0.35498 0.093,-0.0825 0.11608,-0.30971 0.0513,-0.50495 z M 25.274397,114.0804 c -0.06709,-0.0757 -0.565601,-0.19434 -1.107791,-0.26372 -0.62521,-0.08 -1.280366,-0.41071 -1.791102,-0.90412 -0.442916,-0.4279 -0.94297,-0.79112 -1.111232,-0.80715 -0.412677,-0.0393 -1.282699,-2.20535 -1.231054,-3.06485 0.04603,-0.76608 1.182662,-1.71992 1.991593,-1.67132 0.270925,0.0163 0.498385,-0.0595 0.505459,-0.16841 0.0071,-0.10892 1.170113,-0.11034 2.58453,-0.003 5.833235,0.44196 9.249553,0.6274 9.86081,0.53509 0.356459,-0.0538 1.21403,-0.0981 1.905715,-0.0985 0.691687,-4.2e-4 1.32761,-0.0628 1.413168,-0.13861 0.08555,-0.0758 0.582855,-0.0142 1.10511,0.13703 0.522258,0.15121 1.079738,0.20303 1.238852,0.11511 0.305513,-0.16875 1.210059,-0.1711 7.172386,-0.0186 2.037834,0.0521 4.960542,0.0452 6.494905,-0.0153 1.534362,-0.0605 4.397419,-0.0673 6.362349,-0.0149 3.81864,0.10173 3.807464,0.10177 11.664913,-0.0375 2.845809,-0.0504 6.232162,-0.0387 7.525236,0.026 1.293073,0.0648 2.504307,0.005 2.691623,-0.132 0.187315,-0.13735 0.859649,-0.20327 1.494065,-0.14647 2.085715,0.18673 6.709147,0.0789 7.040664,-0.16421 0.210611,-0.15443 0.375551,-0.14414 0.468854,0.0292 0.07912,0.14713 0.769482,0.24915 1.534074,0.22672 0.764585,-0.0225 2.995764,0.0362 4.958185,0.13024 1.962421,0.0941 3.632281,0.0944 3.710801,7.2e-4 0.0786,-0.0937 0.91991,-0.20095 1.86975,-0.23838 0.94984,-0.0374 2.92452,-0.14737 4.38818,-0.24435 1.46365,-0.097 2.95376,-0.0825 3.31133,0.0322 0.35756,0.11465 0.87356,0.11239 1.14666,-0.005 0.2731,-0.11745 0.96235,-0.10577 1.53171,0.026 0.57293,0.1326 1.18543,0.13274 1.3717,2.7e-4 0.54892,-0.39019 7.55418,-0.43336 8.03349,-0.0495 0.15042,0.12045 0.9606,0.11742 1.80037,-0.007 1.17372,-0.17348 1.63793,-0.14673 2.0068,0.11557 0.31197,0.22191 0.51697,0.24888 0.58595,0.0771 0.0583,-0.14531 0.81888,-0.25463 1.69013,-0.2429 0.87123,0.0118 1.78005,-0.0523 2.01964,-0.14235 0.68197,-0.25625 5.25774,-0.28531 6.44539,-0.0409 0.64901,0.13356 1.43084,0.0995 1.98741,-0.0866 0.50466,-0.16871 1.1644,-0.23062 1.46609,-0.13756 0.30172,0.0931 0.78671,0.0136 1.07775,-0.17653 0.36837,-0.24068 0.62308,-0.25771 0.83833,-0.0561 0.21184,0.19844 0.71008,0.21393 1.58243,0.0492 1.12255,-0.212 1.30906,-0.18469 1.57621,0.23081 0.17932,0.27896 0.34958,0.3551 0.41725,0.18657 0.0628,-0.15658 0.72939,-0.30352 1.48119,-0.32655 0.75182,-0.023 1.79214,-0.19024 2.31184,-0.37161 0.84111,-0.29352 0.95952,-0.28366 1.07764,0.0898 0.0956,0.30226 0.3422,0.38654 0.88204,0.30153 0.96221,-0.15152 3.50445,-0.23719 5.36548,-0.18083 0.80035,0.0243 1.62814,-0.0521 1.83954,-0.16972 0.21138,-0.11761 1.15579,-0.14235 2.09866,-0.055 1.04222,0.0966 1.79324,0.0467 1.91558,-0.12696 0.11586,-0.16452 1.22288,-0.26847 2.60908,-0.24499 1.32428,0.0225 3.1604,-0.1067 4.08023,-0.28698 1.89561,-0.37152 2.44801,-0.18099 3.30766,1.14085 0.65943,1.01395 0.30001,2.893 -0.62901,3.2885 -0.33203,0.14135 -0.54597,0.3221 -0.47543,0.40168 0.0706,0.0796 -0.56977,0.30271 -1.42292,0.49587 -0.85317,0.19316 -1.9231,0.44425 -2.37765,0.55796 -0.45452,0.11371 -1.27637,0.17972 -1.82632,0.14667 -0.75435,-0.0453 -0.97016,0.034 -0.87876,0.32286 0.0666,0.2106 -0.0635,0.44135 -0.28919,0.51274 -0.69157,0.21878 -2.35829,0.0299 -2.65116,-0.30041 -0.2036,-0.22962 -0.60136,-0.2101 -1.50377,0.0738 -0.67486,0.21231 -1.49556,0.3031 -1.8238,0.20177 -0.51759,-0.15978 -4.6463,-0.17104 -8.42579,-0.023 -0.65757,0.0258 -2.39118,0.0939 -3.85247,0.15133 -1.46129,0.0575 -4.32809,0.12645 -6.37066,0.15327 -4.29846,0.0565 -5.8539,0.0929 -7.69757,0.18009 -3.56205,0.16851 -5.24162,0.19575 -7.42894,0.1205 -1.30934,-0.045 -3.38836,-7.6e-4 -4.62006,0.0984 -1.23168,0.0992 -3.07859,0.12725 -4.10423,0.0624 -1.04981,-0.0661 -1.94881,0.001 -2.05704,0.155 -0.11325,0.16078 -1.48237,0.23397 -3.33191,0.17809 -1.72681,-0.0522 -3.55951,-0.0556 -4.07263,-0.008 -1.73146,0.16196 -3.5696,0.16763 -8.302812,0.0256 -2.656204,-0.0797 -4.960992,-0.028 -5.279168,0.11845 -0.322154,0.14829 -1.254623,0.16647 -2.171137,0.0423 -0.883571,-0.11971 -2.491956,-0.17358 -3.57419,-0.11979 -1.082256,0.0538 -2.456226,0.0918 -3.053265,0.0843 -0.59704,-0.007 -1.242684,0.0928 -1.434753,0.22274 -0.192069,0.12993 -0.872857,0.13215 -1.512861,0.005 -0.640002,-0.12722 -1.239576,-0.12347 -1.332387,0.008 -0.09277,0.13178 -0.51644,0.14806 -0.941416,0.0362 -0.501092,-0.13188 -0.779153,-0.0957 -0.791094,0.10303 -0.01329,0.22112 -0.156061,0.22175 -0.512897,0.002 -0.331335,-0.20378 -0.726288,-0.23159 -1.196957,-0.0843 -0.386357,0.12091 -1.857977,0.16527 -3.270269,0.0986 -1.41229,-0.0667 -3.050463,-0.029 -3.640371,0.0838 -0.589908,0.1128 -2.084533,0.17372 -3.321389,0.13537 -1.236857,-0.0384 -3.381948,-0.0699 -4.766876,-0.0701 -1.384925,-2.6e-4 -3.830055,-10e-4 -5.433617,-0.002 -1.603564,-8.8e-4 -3.005185,0.046 -3.114717,0.10416 -0.109534,0.0582 -1.720702,0.0737 -3.580381,0.0344 -1.859677,-0.0393 -3.563433,-0.0168 -3.786123,0.05 -0.222692,0.0669 -1.488263,0.0409 -2.812381,-0.0577 -2.296837,-0.17097 -2.416946,-0.15224 -2.613631,0.41492 -0.19784,0.57018 -0.220083,0.57343 -0.552662,0.0804 -0.306801,-0.45478 -0.704395,-0.52993 -3.468309,-0.65551 -3.102682,-0.14095 -5.506173,-0.16102 -5.513086,-0.046 -0.0096,0.15991 -6.639851,0.16387 -6.781552,0.004 z M 22.145641,67.853554 c -1.48154,-0.443238 -2.878873,-1.800161 -3.021907,-2.934502 -0.189266,-1.501004 0.221452,-2.699698 0.973467,-2.841118 0.35455,-0.06667 0.651546,-0.236221 0.65999,-0.376762 0.03194,-0.53154 1.94996,-0.943122 3.320908,-0.712623 2.235543,0.375866 5.442564,0.626366 7.634089,0.596294 1.1386,-0.01563 2.296344,0.07106 2.572767,0.192617 0.276418,0.121568 0.508394,0.124266 0.515499,0.006 0.0071,-0.118258 1.053282,-0.159873 2.324837,-0.09248 1.271554,0.06739 2.851225,0.07991 3.51038,0.02781 2.095371,-0.165618 3.723383,-0.140425 9.063999,0.140258 3.142128,0.165127 5.283639,0.173066 5.39147,0.01996 0.09839,-0.139697 0.669627,-0.173348 1.269429,-0.07478 0.599798,0.09857 1.810087,0.114673 2.689522,0.03586 2.596261,-0.232761 7.657581,-0.02618 7.843897,0.320159 0.115399,0.214511 0.289588,0.209238 0.59969,-0.01815 0.240377,-0.176257 0.43173,-0.231941 0.425228,-0.12374 -0.0065,0.108202 0.175342,0.05949 0.404096,-0.108249 0.228754,-0.167739 0.410596,-0.216452 0.404095,-0.108249 -0.0065,0.108201 0.164234,0.06763 0.379407,-0.09015 0.268502,-0.196882 0.439875,-0.196461 0.546283,0.0013 0.08525,0.15852 0.418972,0.240799 0.741529,0.182838 0.892921,-0.160447 3.197275,-0.216226 6.420811,-0.155425 1.601802,0.03021 3.178102,0.02967 3.502879,-0.0012 0.324786,-0.03086 0.622931,0.06486 0.662542,0.212743 0.04663,0.174225 0.267801,0.178756 0.628189,0.01288 0.305895,-0.140801 1.060815,-0.174991 1.677607,-0.07598 0.616792,0.09901 1.341936,0.07853 1.611431,-0.04552 0.269495,-0.124046 2.079641,-0.194861 4.02255,-0.157364 1.942899,0.0375 4.784011,0.0839 6.313582,0.103123 1.52957,0.01922 4.181001,0.06945 5.892053,0.11161 1.71106,0.04216 3.23737,0.0087 3.39182,-0.0744 0.15446,-0.08309 1.51802,-0.11426 3.03017,-0.06928 1.51217,0.04499 2.85159,0.02698 2.97651,-0.04001 0.12492,-0.06699 1.11848,-0.06801 2.20791,-0.0023 1.08942,0.06575 2.75762,0.09371 3.70711,0.06215 1.47698,-0.0491 4.37834,-0.08669 6.23378,-0.08076 6.96922,0.02226 10.16383,0.05682 13.06408,0.14133 1.9383,0.05648 3.6322,0.04459 3.76422,-0.02643 0.13201,-0.07102 1.52765,-0.11067 3.10142,-0.08812 1.57377,0.02255 3.22256,-0.01432 3.66398,-0.08195 0.44141,-0.06763 1.94369,-0.06452 3.33842,0.0069 1.42976,0.07321 2.70524,0.01127 2.9242,-0.142014 0.47197,-0.33039 0.66475,-0.338452 4.49174,-0.187839 1.67255,0.06583 3.30376,0.04584 3.62496,-0.04441 0.32116,-0.09025 0.64744,-0.04602 0.72508,0.09829 0.17114,0.318116 2.05743,-0.03188 2.34545,-0.435196 0.13669,-0.191395 0.29476,-0.18375 0.52859,0.02555 0.21901,0.196047 0.99675,0.26512 2.26422,0.201086 3.2919,-0.166311 3.66631,0.09388 3.42901,2.382918 -0.19086,1.841029 -0.56074,2.580388 -1.26965,2.537792 -0.27681,-0.01663 -0.58524,0.08606 -0.68535,0.228203 -0.10011,0.142147 -0.27323,0.194198 -0.38474,0.115663 -0.11152,-0.07853 -0.43348,0.0833 -0.71549,0.359625 -0.282,0.276326 -0.68019,0.426345 -0.88482,0.333378 -0.3791,-0.17222 -2.05365,0.191291 -2.6562,0.576601 -0.18287,0.116941 -0.48038,0.105752 -0.66116,-0.02486 -0.18077,-0.130616 -1.0712,-0.283845 -1.97878,-0.340512 -1.21602,-0.07597 -1.65587,-0.0087 -1.67199,0.255716 -0.0163,0.26666 -0.20504,0.29313 -0.73543,0.103123 -0.82566,-0.29578 -1.50591,-0.334224 -4.42474,-0.250069 -1.16829,0.03369 -3.01733,0.03771 -4.10898,0.0089 -2.02321,-0.05333 -4.32511,0.07963 -5.05369,0.291899 -0.22257,0.06485 -0.99775,0.06275 -1.72261,-0.0047 -0.72486,-0.06741 -1.49586,-0.13911 -1.71332,-0.159339 -1.55645,-0.144805 -3.38368,-0.0094 -3.77186,0.279569 -0.3498,0.260391 -0.58812,0.26699 -0.97819,0.02709 -0.66329,-0.407969 -2.83842,-0.542251 -3.08613,-0.190544 -0.11008,0.156337 -0.87112,0.197257 -1.81064,0.09736 -0.89141,-0.09479 -1.77787,-0.08679 -1.96994,0.01776 -0.19207,0.104551 -0.68704,0.09433 -1.09991,-0.0227 -0.41287,-0.117035 -0.82856,-0.10223 -0.92373,0.03289 -0.0974,0.1383 -1.87623,0.154015 -4.06956,0.03596 -3.36784,-0.181263 -4.95845,-0.181995 -4.96925,-0.0022 -0.002,0.02591 -0.9561,0.03139 -2.12122,0.01221 -6.16022,-0.101402 -7.267,-0.09435 -7.53166,0.04801 -0.15888,0.08553 -0.5062,0.02178 -0.77178,-0.141545 -0.26561,-0.163355 -0.56662,-0.222786 -0.66895,-0.13206 -0.10233,0.09073 -1.40969,0.107022 -2.90528,0.03623 -1.49559,-0.07083 -2.84754,-0.05971 -3.00432,0.02464 -0.15676,0.08435 -1.939524,0.119075 -3.961671,0.07717 -2.02215,-0.04186 -4.571601,-0.06984 -5.665444,-0.06213 -1.093831,0.0077 -3.179701,-0.01689 -4.635263,-0.0547 -1.455566,-0.03777 -2.829524,-0.0025 -3.053252,0.07843 -0.223726,0.08093 -2.014026,0.09988 -3.978436,0.04209 -1.964408,-0.05783 -5.124944,-0.06041 -7.023417,-0.0058 -1.898463,0.0546 -4.024904,0.04848 -4.725421,-0.01361 -0.700517,-0.06213 -1.439642,0.0088 -1.642497,0.157549 -0.249234,0.182751 -0.417959,0.179114 -0.520363,-0.01123 -0.165477,-0.307599 -2.943462,-0.306276 -4.180227,0.002 -0.422104,0.105213 -0.790198,0.0786 -0.866169,-0.06266 -0.07267,-0.135082 -0.291715,-0.195108 -0.486773,-0.133396 -0.19506,0.06171 -1.355417,0.08206 -2.578571,0.04523 -3.367779,-0.101416 -11.906767,0.06788 -11.916553,0.236261 -0.0047,0.08146 -0.601589,0.09427 -1.326335,0.02836 -0.724748,-0.06589 -2.186021,-0.06593 -3.247285,4.4e-5 -1.061262,0.06594 -2.764211,0.114964 -3.784331,0.108938 -4.637749,-0.02738 -7.360656,-0.0037 -9.944973,0.08659 -3.311201,0.115668 -4.553937,0.03865 -5.906637,-0.366029 z"
       style="fill:#050500;fill-opacity:1;stroke-width:0.26458332" />
  </g>
</svg>
