<?xml version="1.0" encoding="UTF-8" standalone="no"?>
<svg
   xmlns:dc="http://purl.org/dc/elements/1.1/"
   xmlns:cc="http://creativecommons.org/ns#"
   xmlns:rdf="http://www.w3.org/1999/02/22-rdf-syntax-ns#"
   xmlns:svg="http://www.w3.org/2000/svg"
   xmlns="http://www.w3.org/2000/svg"
   id="svg77"
   version="1.1"
   viewBox="0 0 30.544155 31.289837"
   height="31.289837mm"
   width="30.544155mm">
  <defs
     id="defs71" />
  <metadata
     id="metadata74">
    <rdf:RDF>
      <cc:Work
         rdf:about="">
        <dc:format>image/svg+xml</dc:format>
        <dc:type
           rdf:resource="http://purl.org/dc/dcmitype/StillImage" />
        <dc:title></dc:title>
      </cc:Work>
    </rdf:RDF>
  </metadata>
  <g
     transform="translate(-52.304928,-38.539021)"
     id="layer1">
    <path
       id="path79"
       d="m 82.567728,39.63824 c -0.25707,0.367 -0.60997,0.56142 -0.88741,0.48887 -0.25337,-0.0663 -0.65866,-0.01 -0.90067,0.12578 -0.24201,0.13544 -0.70541,0.29771 -1.02978,0.3606 -0.99264,0.19248 -8.27032,0.22595 -8.57211,0.0394 -0.27633,-0.17079 -2.78802,-0.0114 -3.47459,0.22045 -0.18946,0.064 -0.27895,0.0103 -0.19883,-0.11933 0.0824,-0.13337 -1.60533,-0.2491 -3.88887,-0.26664 -6.18189,-0.0476 -11.31054,-0.31869 -11.31054,-0.59801 0,-0.13822 0.12282,-0.48081 0.27292,-0.76129 0.23902,-0.44659 0.49376,-0.49474 2.05052,-0.38762 0.97768,0.0673 1.7776,0.13777 1.7776,0.15664 0,0.16576 12.54109,0.59169 17.33021,0.58854 4.22275,-0.003 7.1388,-0.31808 7.76761,-0.83995 0.19537,-0.16214 0.51549,-0.13875 0.89723,0.0656 0.56105,0.30025 0.57017,0.35095 0.16671,0.92695 z m -0.85926,14.32213 c -0.43675,0 -1.12927,-0.13171 -1.53892,-0.29271 -0.60696,-0.23852 -10.30859,-0.52506 -16.88441,-0.49869 -0.58209,0.003 -1.34864,0.003 -1.70347,-2.1e-4 -0.35481,-0.003 -0.73993,0.14489 -0.85585,0.32742 -0.14126,0.22252 -0.21204,0.23228 -0.21476,0.0296 -0.005,-0.37341 -5.68873,-0.49535 -6.64149,-0.14251 -1.00777,0.37322 -1.30601,0.14391 -0.99036,-0.76149 0.14917,-0.42797 0.40841,-0.78632 0.57607,-0.79632 0.54266,-0.0324 3.95894,0.0251 5.86111,0.0986 1.01864,0.0394 2.35809,-0.003 2.97656,-0.0948 0.61846,-0.0915 1.1248,-0.096 1.12519,-0.01 0,0.0861 3.42342,0.20365 7.60677,0.26128 4.18333,0.0576 8.4395,0.17668 9.45814,0.26458 1.77816,0.15343 1.85542,0.18886 1.9358,0.88741 0.0749,0.65072 -1.9e-4,0.72761 -0.71038,0.72761 z m 0.0546,15.54427 c -0.15576,0.38603 -1.0463,0.44424 -1.26958,0.083 -0.0842,-0.13626 -0.35912,-0.24021 -0.61092,-0.23103 -0.51168,0.0188 -3.20583,-0.25403 -4.42656,-0.44805 -1.98647,-0.31567 -6.37305,-0.69548 -9.39271,-0.81319 -1.81901,-0.0709 -3.45612,-0.18095 -3.63802,-0.2445 -0.1819,-0.0635 -0.33073,-0.0127 -0.33073,0.11289 0,0.12563 -0.38695,0.14277 -0.85989,0.0381 -1.36282,-0.30159 -7.20199,0.0953 -6.96818,0.47363 0.0629,0.10174 -0.20391,0.16825 -0.59288,0.14785 -0.60121,-0.0316 -0.69905,-0.14658 -0.65296,-0.76761 0.0298,-0.40177 0.10761,-0.78388 0.17282,-0.8491 0.47964,-0.47966 9.0749,-0.44857 15.64797,0.0566 0.87312,0.0671 2.48046,0.17889 3.57187,0.24842 1.09141,0.0695 2.81355,0.25225 3.82701,0.40603 1.01344,0.15375 2.17374,0.22738 2.57845,0.16359 0.4047,-0.0638 0.80322,-0.007 0.88556,0.12631 0.0824,0.13327 0.42299,0.1737 0.75694,0.0899 0.38018,-0.0954 0.76984,0.0103 1.04212,0.28252 0.45291,0.45289 0.48125,0.57566 0.25969,1.12472 z"
       style="fill:#000000;stroke-width:0.26458332" />
  </g>
</svg>
